solid Robot
facet normal -0.7071067811865382 0.7071067811865569 9.350881899249321e-16
  outer loop
    vertex 127.60736804343279 37.05064689018812 0.09243958553376523
    vertex 124.10736804343277 33.550646890188204 2.592439585533707
    vertex 127.60736804343274 37.05064689018806 2.5924395855337155
  endloop
endfacet
facet normal -0.7071067811865382 0.7071067811865569 9.350881899249321e-16
  outer loop
    vertex 124.10736804343277 33.550646890188204 2.592439585533707
    vertex 127.60736804343279 37.05064689018812 0.09243958553376523
    vertex 124.10736804343277 33.550646890188176 0.09243958553377651
  endloop
endfacet
facet normal -8.249842334576349e-15 2.996413256374315e-15 1.0
  outer loop
    vertex 138.2065810434329 17.42390689018798 2.592439585533862
    vertex 139.58193304343277 14.274956890187989 2.592439585533893
    vertex 140.16287604343293 17.008086890188068 2.5924395855338878
  endloop
endfacet
facet normal -8.249842334576349e-15 2.996413256374315e-15 1.0
  outer loop
    vertex 139.58193304343277 14.274956890187989 2.592439585533893
    vertex 138.2065810434329 17.42390689018798 2.592439585533862
    vertex 138.91246404343266 12.285086890187939 2.592439585533845
  endloop
endfacet
facet normal -8.249842334576349e-15 2.996413256374315e-15 1.0
  outer loop
    vertex 138.91246404343266 12.285086890187939 2.592439585533845
    vertex 138.2065810434329 17.42390689018798 2.592439585533862
    vertex 137.62204404343274 14.673876890187978 2.5924395855338678
  endloop
endfacet
facet normal -8.249842334576349e-15 2.996413256374315e-15 1.0
  outer loop
    vertex 138.91246404343266 12.285086890187939 2.592439585533845
    vertex 137.62204404343274 14.673876890187978 2.5924395855338678
    vertex 137.04634604343275 12.580646890188019 2.5924395855338904
  endloop
endfacet
facet normal -8.249842334576349e-15 2.996413256374315e-15 1.0
  outer loop
    vertex 137.04634604343275 12.580646890188019 2.5924395855338904
    vertex 137.62204404343274 14.673876890187978 2.5924395855338678
    vertex 136.0480240434327 14.508436890187971 2.59243958553384
  endloop
endfacet
facet normal -8.249842334576349e-15 2.996413256374315e-15 1.0
  outer loop
    vertex 137.04634604343275 12.580646890188019 2.5924395855338904
    vertex 136.0480240434327 14.508436890187971 2.59243958553384
    vertex 135.28245904343277 11.9035568901881 2.5924395855338536
  endloop
endfacet
facet normal -8.249842334576349e-15 2.996413256374315e-15 1.0
  outer loop
    vertex 135.28245904343277 11.9035568901881 2.5924395855338536
    vertex 136.0480240434327 14.508436890187971 2.59243958553384
    vertex 134.9044960434329 17.07684689018814 2.59243958553382
  endloop
endfacet
facet normal -8.249842334576349e-15 2.996413256374315e-15 1.0
  outer loop
    vertex 135.28245904343277 11.9035568901881 2.5924395855338536
    vertex 134.9044960434329 17.07684689018814 2.59243958553382
    vertex 134.91569804343257 11.450646890188073 2.5924395855339215
  endloop
endfacet
facet normal -8.249842334576349e-15 2.996413256374315e-15 1.0
  outer loop
    vertex 134.91569804343257 11.450646890188073 2.5924395855339215
    vertex 134.9044960434329 17.07684689018814 2.59243958553382
    vertex 134.09343404343267 10.435236890187998 2.592439585533845
  endloop
endfacet
facet normal -8.249842334576349e-15 2.996413256374315e-15 1.0
  outer loop
    vertex 134.09343404343267 10.435236890187998 2.592439585533845
    vertex 134.9044960434329 17.07684689018814 2.59243958553382
    vertex 133.49803704343287 16.450646890188054 2.5924395855338256
  endloop
endfacet
facet normal -8.249842334576349e-15 2.996413256374315e-15 1.0
  outer loop
    vertex 134.09343404343267 10.435236890187998 2.592439585533845
    vertex 133.49803704343287 16.450646890188054 2.5924395855338256
    vertex 133.79787004343282 8.569116890188004 2.5924395855338846
  endloop
endfacet
facet normal -8.249842334576349e-15 2.996413256374315e-15 1.0
  outer loop
    vertex 137.00736804343276 46.45064689018808 2.592439585533724
    vertex 141.60736804343273 28.45064689018803 2.592439585533876
    vertex 141.60736804343287 46.45064689018803 2.5924395855338593
  endloop
endfacet
facet normal -8.249842334576349e-15 2.996413256374315e-15 1.0
  outer loop
    vertex 141.60736804343273 28.45064689018803 2.592439585533876
    vertex 137.00736804343276 46.45064689018808 2.592439585533724
    vertex 129.10736804343267 28.450646890188096 2.5924395855337887
  endloop
endfacet
facet normal -8.249842334576349e-15 2.996413256374315e-15 1.0
  outer loop
    vertex 129.10736804343267 28.450646890188096 2.5924395855337887
    vertex 137.00736804343276 46.45064689018808 2.592439585533724
    vertex 127.60736804343274 37.05064689018806 2.5924395855337155
  endloop
endfacet
facet normal -8.249842334576349e-15 2.996413256374315e-15 1.0
  outer loop
    vertex 129.10736804343267 28.450646890188096 2.5924395855337887
    vertex 127.60736804343274 37.05064689018806 2.5924395855337155
    vertex 127.60736804343261 11.35064689018813 2.5924395855337776
  endloop
endfacet
facet normal -8.249842334576349e-15 2.996413256374315e-15 1.0
  outer loop
    vertex 127.60736804343261 11.35064689018813 2.5924395855337776
    vertex 127.60736804343274 37.05064689018806 2.5924395855337155
    vertex 124.10736804343269 14.85064689018823 2.5924395855337523
  endloop
endfacet
facet normal -8.249842334576349e-15 2.996413256374315e-15 1.0
  outer loop
    vertex 124.10736804343269 14.85064689018823 2.5924395855337523
    vertex 127.60736804343274 37.05064689018806 2.5924395855337155
    vertex 124.10736804343277 33.550646890188204 2.592439585533707
  endloop
endfacet
facet normal -8.249842334576349e-15 2.996413256374315e-15 1.0
  outer loop
    vertex 129.1073680434329 16.45064689018809 2.5924395855338087
    vertex 132.60690644343273 5.955456890188003 2.592439585533882
    vertex 133.49803704343287 16.450646890188054 2.5924395855338256
  endloop
endfacet
facet normal -8.249842334576349e-15 2.996413256374315e-15 1.0
  outer loop
    vertex 132.60690644343273 5.955456890188003 2.592439585533882
    vertex 129.1073680434329 16.45064689018809 2.5924395855338087
    vertex 132.0396247434326 6.950646890187971 2.5924395855338904
  endloop
endfacet
facet normal -8.249842334576349e-15 2.996413256374315e-15 1.0
  outer loop
    vertex 132.0396247434326 6.950646890187971 2.5924395855338904
    vertex 129.1073680434329 16.45064689018809 2.5924395855338087
    vertex 132.00736804343262 6.95064689018807 2.592439585533865
  endloop
endfacet
facet normal -8.249842334576349e-15 2.996413256374315e-15 1.0
  outer loop
    vertex 132.00736804343262 6.95064689018807 2.592439585533865
    vertex 129.1073680434329 16.45064689018809 2.5924395855338087
    vertex 127.60736804343261 11.35064689018813 2.5924395855337776
  endloop
endfacet
facet normal -8.249842334576349e-15 2.996413256374315e-15 1.0
  outer loop
    vertex 127.60736804343261 11.35064689018813 2.5924395855337776
    vertex 129.1073680434329 16.45064689018809 2.5924395855338087
    vertex 129.10736804343267 28.450646890188096 2.5924395855337887
  endloop
endfacet
facet normal -8.249842334576349e-15 2.996413256374315e-15 1.0
  outer loop
    vertex 134.4749630434326 6.805226890188183 2.5924395855338735
    vertex 135.2890010434326 3.697766890187944 2.592439585533862
    vertex 135.94328604343264 5.616206890188095 2.5924395855339046
  endloop
endfacet
facet normal -8.249842334576349e-15 2.996413256374315e-15 1.0
  outer loop
    vertex 135.2890010434326 3.697766890187944 2.592439585533862
    vertex 134.4749630434326 6.805226890188183 2.5924395855338735
    vertex 134.38980304343264 4.068776890187956 2.592439585533927
  endloop
endfacet
facet normal -8.249842334576349e-15 2.996413256374315e-15 1.0
  outer loop
    vertex 134.38980304343264 4.068776890187956 2.592439585533927
    vertex 134.4749630434326 6.805226890188183 2.5924395855338735
    vertex 133.79787004343282 8.569116890188004 2.5924395855338846
  endloop
endfacet
facet normal -8.249842334576349e-15 2.996413256374315e-15 1.0
  outer loop
    vertex 134.38980304343264 4.068776890187956 2.592439585533927
    vertex 133.79787004343282 8.569116890188004 2.5924395855338846
    vertex 133.94021204343272 4.4647068901880935 2.592439585533913
  endloop
endfacet
facet normal -8.249842334576349e-15 2.996413256374315e-15 1.0
  outer loop
    vertex 133.94021204343272 4.4647068901880935 2.592439585533913
    vertex 133.79787004343282 8.569116890188004 2.5924395855338846
    vertex 131.81743194343252 2.553346890188024 2.592439585533893
  endloop
endfacet
facet normal -8.249842334576349e-15 2.996413256374315e-15 1.0
  outer loop
    vertex 131.81743194343252 2.553346890188024 2.592439585533893
    vertex 133.79787004343282 8.569116890188004 2.5924395855338846
    vertex 132.60690644343273 5.955456890188003 2.592439585533882
  endloop
endfacet
facet normal -8.249842334576349e-15 2.996413256374315e-15 1.0
  outer loop
    vertex 132.60690644343273 5.955456890188003 2.592439585533882
    vertex 133.79787004343282 8.569116890188004 2.5924395855338846
    vertex 133.49803704343287 16.450646890188054 2.5924395855338256
  endloop
endfacet
facet normal -8.249842334576349e-15 2.996413256374315e-15 1.0
  outer loop
    vertex 131.81743194343252 2.553346890188024 2.592439585533893
    vertex 132.60690644343273 5.955456890188003 2.592439585533882
    vertex 130.47917104343261 4.03963689018807 2.5924395855338678
  endloop
endfacet
facet normal -8.249842334576349e-15 2.996413256374315e-15 1.0
  outer loop
    vertex 141.0578800434328 9.332176890187974 2.592439585533927
    vertex 140.6121430434328 4.257256890188019 2.5924395855339073
    vertex 141.41455504343293 4.807106890188094 2.5924395855338314
  endloop
endfacet
facet normal -8.249842334576349e-15 2.996413256374315e-15 1.0
  outer loop
    vertex 140.6121430434328 4.257256890188019 2.5924395855339073
    vertex 141.0578800434328 9.332176890187974 2.592439585533927
    vertex 140.76231604343278 7.466056890187981 2.5924395855339664
  endloop
endfacet
facet normal -8.249842334576349e-15 2.996413256374315e-15 1.0
  outer loop
    vertex 140.6121430434328 4.257256890188019 2.5924395855339073
    vertex 140.76231604343278 7.466056890187981 2.5924395855339664
    vertex 139.57329104343268 5.997736890188055 2.592439585533851
  endloop
endfacet
facet normal -8.249842334576349e-15 2.996413256374315e-15 1.0
  outer loop
    vertex 140.6121430434328 4.257256890188019 2.5924395855339073
    vertex 139.57329104343268 5.997736890188055 2.592439585533851
    vertex 139.9512540434327 0.8244468901880568 2.592439585533975
  endloop
endfacet
facet normal -8.249842334576349e-15 2.996413256374315e-15 1.0
  outer loop
    vertex 139.9512540434327 0.8244468901880568 2.592439585533975
    vertex 139.57329104343268 5.997736890188055 2.592439585533851
    vertex 138.7859700434325 3.441716890187992 2.5924395855339215
  endloop
endfacet
facet normal -8.249842334576349e-15 2.996413256374315e-15 1.0
  outer loop
    vertex 138.7859700434325 3.441716890187992 2.5924395855339215
    vertex 139.57329104343268 5.997736890188055 2.592439585533851
    vertex 137.8094040434327 5.320636890188114 2.592439585533851
  endloop
endfacet
facet normal -8.249842334576349e-15 2.996413256374315e-15 1.0
  outer loop
    vertex 138.7859700434325 3.441716890187992 2.5924395855339215
    vertex 137.8094040434327 5.320636890188114 2.592439585533851
    vertex 138.0289140434327 3.2321468901880195 2.592439585533862
  endloop
endfacet
facet normal -8.249842334576349e-15 2.996413256374315e-15 1.0
  outer loop
    vertex 138.0289140434327 3.2321468901880195 2.592439585533862
    vertex 137.8094040434327 5.320636890188114 2.592439585533851
    vertex 137.24482704343257 3.279736890187973 2.5924395855339046
  endloop
endfacet
facet normal -8.249842334576349e-15 2.996413256374315e-15 1.0
  outer loop
    vertex 137.24482704343257 3.279736890187973 2.5924395855339046
    vertex 137.8094040434327 5.320636890188114 2.592439585533851
    vertex 135.94328604343264 5.616206890188095 2.5924395855339046
  endloop
endfacet
facet normal -8.249842334576349e-15 2.996413256374315e-15 1.0
  outer loop
    vertex 137.24482704343257 3.279736890187973 2.5924395855339046
    vertex 135.94328604343264 5.616206890188095 2.5924395855339046
    vertex 136.64916904343266 0.47738689018796066 2.592439585533913
  endloop
endfacet
facet normal -8.249842334576349e-15 2.996413256374315e-15 1.0
  outer loop
    vertex 136.64916904343266 0.47738689018796066 2.592439585533913
    vertex 135.94328604343264 5.616206890188095 2.5924395855339046
    vertex 134.69287404343274 0.8932068901880262 2.592439585533876
  endloop
endfacet
facet normal -8.249842334576349e-15 2.996413256374315e-15 1.0
  outer loop
    vertex 134.69287404343274 0.8932068901880262 2.592439585533876
    vertex 135.94328604343264 5.616206890188095 2.5924395855339046
    vertex 135.2890010434326 3.697766890187944 2.592439585533862
  endloop
endfacet
facet normal -8.249842334576349e-15 2.996413256374315e-15 1.0
  outer loop
    vertex 143.03831404343276 15.34794689018807 2.592439585533941
    vertex 142.28010704343257 11.97398689018788 2.5924395855338846
    vertex 144.3765840434328 13.861656890188012 2.5924395855339917
  endloop
endfacet
facet normal -8.249842334576349e-15 2.996413256374315e-15 1.0
  outer loop
    vertex 142.28010704343257 11.97398689018788 2.5924395855338846
    vertex 143.03831404343276 15.34794689018807 2.592439585533941
    vertex 140.93114904343275 13.450636890187962 2.592439585533862
  endloop
endfacet
facet normal -8.249842334576349e-15 2.996413256374315e-15 1.0
  outer loop
    vertex 142.28010704343257 11.97398689018788 2.5924395855338846
    vertex 140.93114904343275 13.450636890187962 2.592439585533862
    vertex 141.77200304343276 5.287856890188048 2.5924395855338735
  endloop
endfacet
facet normal -8.249842334576349e-15 2.996413256374315e-15 1.0
  outer loop
    vertex 141.77200304343276 5.287856890188048 2.5924395855338735
    vertex 140.93114904343275 13.450636890187962 2.592439585533862
    vertex 141.41455504343293 4.807106890188094 2.5924395855338314
  endloop
endfacet
facet normal -8.249842334576349e-15 2.996413256374315e-15 1.0
  outer loop
    vertex 141.41455504343293 4.807106890188094 2.5924395855338314
    vertex 140.93114904343275 13.450636890187962 2.592439585533862
    vertex 141.0578800434328 9.332176890187974 2.592439585533927
  endloop
endfacet
facet normal -8.249842334576349e-15 2.996413256374315e-15 1.0
  outer loop
    vertex 141.0578800434328 9.332176890187974 2.592439585533927
    vertex 140.93114904343275 13.450636890187962 2.592439585533862
    vertex 140.38078704343258 11.096066890188068 2.5924395855339806
  endloop
endfacet
facet normal -8.249842334576349e-15 2.996413256374315e-15 1.0
  outer loop
    vertex 140.38078704343258 11.096066890188068 2.5924395855339806
    vertex 140.93114904343275 13.450636890187962 2.592439585533862
    vertex 139.62098304343277 14.265976890187984 2.5924395855338425
  endloop
endfacet
facet normal -8.249842334576349e-15 2.996413256374315e-15 1.0
  outer loop
    vertex 140.38078704343258 11.096066890188068 2.5924395855339806
    vertex 139.62098304343277 14.265976890187984 2.5924395855338425
    vertex 138.91246404343266 12.285086890187939 2.592439585533845
  endloop
endfacet
facet normal -8.249842334576349e-15 2.996413256374315e-15 1.0
  outer loop
    vertex 138.91246404343266 12.285086890187939 2.592439585533845
    vertex 139.62098304343277 14.265976890187984 2.5924395855338425
    vertex 139.58193304343277 14.274956890187989 2.592439585533893
  endloop
endfacet
facet normal -8.249842334576349e-15 2.996413256374315e-15 1.0
  outer loop
    vertex 139.9512540434327 0.8244468901880568 2.592439585533975
    vertex 141.7783450434327 1.6379268901879256 2.592439585533896
    vertex 140.6121430434328 4.257256890188019 2.5924395855339073
  endloop
endfacet
facet normal -8.249842334576349e-15 2.996413256374315e-15 1.0
  outer loop
    vertex 145.72705404343256 10.828436890187971 2.5924395855339526
    vertex 143.10983404343284 8.542336890187823 2.592439585533975
    vertex 145.93611404343284 8.83938689018796 2.592439585533995
  endloop
endfacet
facet normal -8.249842334576349e-15 2.996413256374315e-15 1.0
  outer loop
    vertex 143.10983404343284 8.542336890187823 2.592439585533975
    vertex 145.72705404343256 10.828436890187971 2.5924395855339526
    vertex 142.89005404343266 10.530246890187938 2.592439585533896
  endloop
endfacet
facet normal -8.249842334576349e-15 2.996413256374315e-15 1.0
  outer loop
    vertex 143.10983404343284 8.542336890187823 2.592439585533975
    vertex 142.76622404343263 7.023246890188008 2.592439585533947
    vertex 143.11893404343286 8.12948689018801 2.5924395855340006
  endloop
endfacet
facet normal -8.249842334576349e-15 2.996413256374315e-15 1.0
  outer loop
    vertex 142.76622404343263 7.023246890188008 2.592439585533947
    vertex 143.10983404343284 8.542336890187823 2.592439585533975
    vertex 142.89005404343266 10.530246890187938 2.592439585533896
  endloop
endfacet
facet normal -8.249842334576349e-15 2.996413256374315e-15 1.0
  outer loop
    vertex 142.76622404343263 7.023246890188008 2.592439585533947
    vertex 142.89005404343266 10.530246890187938 2.592439585533896
    vertex 142.42329104343267 11.798156890188027 2.5924395855339526
  endloop
endfacet
facet normal -8.249842334576349e-15 2.996413256374315e-15 1.0
  outer loop
    vertex 142.76622404343263 7.023246890188008 2.592439585533947
    vertex 144.2457940434327 3.859616890187939 2.5924395855339637
    vertex 145.24579404343257 5.591676890187921 2.592439585534009
  endloop
endfacet
facet normal -8.249842334576349e-15 2.996413256374315e-15 1.0
  outer loop
    vertex 144.2457940434327 3.859616890187939 2.5924395855339637
    vertex 142.76622404343263 7.023246890188008 2.592439585533947
    vertex 141.77200304343276 5.287856890188048 2.5924395855338735
  endloop
endfacet
facet normal -8.249842334576349e-15 2.996413256374315e-15 1.0
  outer loop
    vertex 141.77200304343276 5.287856890188048 2.5924395855338735
    vertex 142.76622404343263 7.023246890188008 2.592439585533947
    vertex 142.42329104343267 11.798156890188027 2.5924395855339526
  endloop
endfacet
facet normal -8.249842334576349e-15 2.996413256374315e-15 1.0
  outer loop
    vertex 141.77200304343276 5.287856890188048 2.5924395855338735
    vertex 142.42329104343267 11.798156890188027 2.5924395855339526
    vertex 142.28010704343257 11.97398689018788 2.5924395855338846
  endloop
endfacet
facet normal 2.1766265195720687e-14 4.749852569695981e-15 1.0
  outer loop
    vertex 143.60736804343333 46.45064689018813 27.59243958553372
    vertex 143.60736804343327 28.450646890188132 27.59243958553389
    vertex 143.6073680434334 41.450646890188146 27.592439585533846
  endloop
endfacet
facet normal 2.1766265195720687e-14 4.749852569695981e-15 1.0
  outer loop
    vertex 143.60736804343327 28.450646890188132 27.59243958553389
    vertex 143.60736804343333 46.45064689018813 27.59243958553372
    vertex 141.60736804343327 28.45064689018815 27.592439585533874
  endloop
endfacet
facet normal 2.1766265195720687e-14 4.749852569695981e-15 1.0
  outer loop
    vertex 141.60736804343327 28.45064689018815 27.592439585533874
    vertex 143.60736804343333 46.45064689018813 27.59243958553372
    vertex 141.6073680434334 46.450646890188146 27.59243958553386
  endloop
endfacet
facet normal -1.0 8.333611578592602e-15 2.1766265195720646e-14
  outer loop
    vertex 141.60736804343327 28.45064689018815 27.592439585533874
    vertex 141.60736804343287 46.45064689018803 2.5924395855338593
    vertex 141.60736804343273 28.45064689018803 2.592439585533876
  endloop
endfacet
facet normal -1.0 8.333611578592602e-15 2.1766265195720646e-14
  outer loop
    vertex 141.60736804343287 46.45064689018803 2.5924395855338593
    vertex 141.60736804343327 28.45064689018815 27.592439585533874
    vertex 141.6073680434334 46.450646890188146 27.59243958553386
  endloop
endfacet
facet normal 4.270513406047122e-15 -4.203156562791094e-15 -1.0
  outer loop
    vertex 139.95125404343273 0.8244468901880532 0.09243958553392315
    vertex 140.61214304343275 4.2572568901880965 0.09243958553392315
    vertex 141.77834504343252 1.6379268901879653 0.09243958553399083
  endloop
endfacet
facet normal 4.270513406047122e-15 -4.203156562791094e-15 -1.0
  outer loop
    vertex 141.05788004343262 9.33217689018794 0.09243958553391186
    vertex 140.93114904343278 13.450636890187983 0.09243958553384983
    vertex 141.2280400434329 13.26587689018813 0.09243958553394006
  endloop
endfacet
facet normal 4.270513406047122e-15 -4.203156562791094e-15 -1.0
  outer loop
    vertex 140.93114904343278 13.450636890187983 0.09243958553384983
    vertex 141.05788004343262 9.33217689018794 0.09243958553391186
    vertex 140.38078704343278 11.096066890187977 0.09243958553391186
  endloop
endfacet
facet normal 4.270513406047122e-15 -4.203156562791094e-15 -1.0
  outer loop
    vertex 140.93114904343278 13.450636890187983 0.09243958553384983
    vertex 140.38078704343278 11.096066890187977 0.09243958553391186
    vertex 139.62098304343272 14.265976890188004 0.09243958553389495
  endloop
endfacet
facet normal 4.270513406047122e-15 -4.203156562791094e-15 -1.0
  outer loop
    vertex 139.62098304343272 14.265976890188004 0.09243958553389495
    vertex 140.38078704343278 11.096066890187977 0.09243958553391186
    vertex 138.91246404343275 12.285086890187982 0.09243958553393443
  endloop
endfacet
facet normal 4.270513406047122e-15 -4.203156562791094e-15 -1.0
  outer loop
    vertex 139.62098304343272 14.265976890188004 0.09243958553389495
    vertex 138.91246404343275 12.285086890187982 0.09243958553393443
    vertex 139.58193304343274 14.274956890187967 0.09243958553385546
  endloop
endfacet
facet normal 4.270513406047122e-15 -4.203156562791094e-15 -1.0
  outer loop
    vertex 142.76622404343271 7.023246890187902 0.09243958553392315
    vertex 143.1098340434327 8.542336890187988 0.09243958553399646
    vertex 143.11893404343274 8.12948689018793 0.09243958553395698
  endloop
endfacet
facet normal 4.270513406047122e-15 -4.203156562791094e-15 -1.0
  outer loop
    vertex 143.1098340434327 8.542336890187988 0.09243958553399646
    vertex 142.76622404343271 7.023246890187902 0.09243958553392315
    vertex 142.89005404343266 10.53024689018787 0.09243958553385546
  endloop
endfacet
facet normal 4.270513406047122e-15 -4.203156562791094e-15 -1.0
  outer loop
    vertex 142.89005404343266 10.53024689018787 0.09243958553385546
    vertex 142.76622404343271 7.023246890187902 0.09243958553392315
    vertex 142.4232910434328 11.798156890188013 0.09243958553388931
  endloop
endfacet
facet normal 4.270513406047122e-15 -4.203156562791094e-15 -1.0
  outer loop
    vertex 144.24579404343268 3.8596168901879024 0.09243958553400775
    vertex 142.76622404343271 7.023246890187902 0.09243958553392315
    vertex 145.24579404343243 5.591676890187824 0.09243958553393443
  endloop
endfacet
facet normal 4.270513406047122e-15 -4.203156562791094e-15 -1.0
  outer loop
    vertex 142.76622404343271 7.023246890187902 0.09243958553392315
    vertex 144.24579404343268 3.8596168901879024 0.09243958553400775
    vertex 141.7720030434327 5.287856890187975 0.09243958553392878
  endloop
endfacet
facet normal 4.270513406047122e-15 -4.203156562791094e-15 -1.0
  outer loop
    vertex 142.76622404343271 7.023246890187902 0.09243958553392315
    vertex 141.7720030434327 5.287856890187975 0.09243958553392878
    vertex 142.4232910434328 11.798156890188013 0.09243958553388931
  endloop
endfacet
facet normal 4.270513406047122e-15 -4.203156562791094e-15 -1.0
  outer loop
    vertex 142.4232910434328 11.798156890188013 0.09243958553388931
    vertex 141.7720030434327 5.287856890187975 0.09243958553392878
    vertex 142.28010704343276 11.973986890188073 0.09243958553391186
  endloop
endfacet
facet normal 4.270513406047122e-15 -4.203156562791094e-15 -1.0
  outer loop
    vertex 142.28010704343276 11.973986890188073 0.09243958553391186
    vertex 141.7720030434327 5.287856890187975 0.09243958553392878
    vertex 141.2280400434329 13.26587689018813 0.09243958553394006
  endloop
endfacet
facet normal 4.270513406047122e-15 -4.203156562791094e-15 -1.0
  outer loop
    vertex 141.2280400434329 13.26587689018813 0.09243958553394006
    vertex 141.7720030434327 5.287856890187975 0.09243958553392878
    vertex 141.41455504343287 4.807106890188058 0.09243958553388931
  endloop
endfacet
facet normal 4.270513406047122e-15 -4.203156562791094e-15 -1.0
  outer loop
    vertex 141.2280400434329 13.26587689018813 0.09243958553394006
    vertex 141.41455504343287 4.807106890188058 0.09243958553388931
    vertex 141.05788004343262 9.33217689018794 0.09243958553391186
  endloop
endfacet
facet normal 4.270513406047122e-15 -4.203156562791094e-15 -1.0
  outer loop
    vertex 141.05788004343262 9.33217689018794 0.09243958553391186
    vertex 141.41455504343287 4.807106890188058 0.09243958553388931
    vertex 140.61214304343275 4.2572568901880965 0.09243958553392315
  endloop
endfacet
facet normal 4.270513406047122e-15 -4.203156562791094e-15 -1.0
  outer loop
    vertex 141.05788004343262 9.33217689018794 0.09243958553391186
    vertex 140.61214304343275 4.2572568901880965 0.09243958553392315
    vertex 140.7623160434327 7.466056890187998 0.09243958553391186
  endloop
endfacet
facet normal 4.270513406047122e-15 -4.203156562791094e-15 -1.0
  outer loop
    vertex 140.7623160434327 7.466056890187998 0.09243958553391186
    vertex 140.61214304343275 4.2572568901880965 0.09243958553392315
    vertex 139.57329104343248 5.9977368901881105 0.09243958553391751
  endloop
endfacet
facet normal 4.270513406047122e-15 -4.203156562791094e-15 -1.0
  outer loop
    vertex 139.57329104343248 5.9977368901881105 0.09243958553391751
    vertex 140.61214304343275 4.2572568901880965 0.09243958553392315
    vertex 139.95125404343273 0.8244468901880532 0.09243958553392315
  endloop
endfacet
facet normal 4.270513406047122e-15 -4.203156562791094e-15 -1.0
  outer loop
    vertex 139.57329104343248 5.9977368901881105 0.09243958553391751
    vertex 139.95125404343273 0.8244468901880532 0.09243958553392315
    vertex 138.7859700434326 3.4417168901879833 0.09243958553390058
  endloop
endfacet
facet normal 4.270513406047122e-15 -4.203156562791094e-15 -1.0
  outer loop
    vertex 139.57329104343248 5.9977368901881105 0.09243958553391751
    vertex 138.7859700434326 3.4417168901879833 0.09243958553390058
    vertex 137.80940404343266 5.320636890188026 0.09243958553387238
  endloop
endfacet
facet normal 4.270513406047122e-15 -4.203156562791094e-15 -1.0
  outer loop
    vertex 137.80940404343266 5.320636890188026 0.09243958553387238
    vertex 138.7859700434326 3.4417168901879833 0.09243958553390058
    vertex 138.02891404343274 3.2321468901880697 0.09243958553390623
  endloop
endfacet
facet normal 4.270513406047122e-15 -4.203156562791094e-15 -1.0
  outer loop
    vertex 137.80940404343266 5.320636890188026 0.09243958553387238
    vertex 138.02891404343274 3.2321468901880697 0.09243958553390623
    vertex 137.24482704343257 3.2797368901879933 0.09243958553387803
  endloop
endfacet
facet normal 4.270513406047122e-15 -4.203156562791094e-15 -1.0
  outer loop
    vertex 137.80940404343266 5.320636890188026 0.09243958553387238
    vertex 137.24482704343257 3.2797368901879933 0.09243958553387803
    vertex 135.94328604343255 5.616206890188107 0.09243958553390058
  endloop
endfacet
facet normal 4.270513406047122e-15 -4.203156562791094e-15 -1.0
  outer loop
    vertex 135.94328604343255 5.616206890188107 0.09243958553390058
    vertex 137.24482704343257 3.2797368901879933 0.09243958553387803
    vertex 136.64916904343272 0.47738689018795977 0.09243958553391186
  endloop
endfacet
facet normal 4.270513406047122e-15 -4.203156562791094e-15 -1.0
  outer loop
    vertex 135.94328604343255 5.616206890188107 0.09243958553390058
    vertex 136.64916904343272 0.47738689018795977 0.09243958553391186
    vertex 134.69287404343277 0.8932068901880026 0.09243958553391186
  endloop
endfacet
facet normal 4.270513406047122e-15 -4.203156562791094e-15 -1.0
  outer loop
    vertex 135.94328604343255 5.616206890188107 0.09243958553390058
    vertex 134.69287404343277 0.8932068901880026 0.09243958553391186
    vertex 135.2890010434325 3.6977668901879652 0.09243958553388366
  endloop
endfacet
facet normal 4.270513406047122e-15 -4.203156562791094e-15 -1.0
  outer loop
    vertex 135.2890010434325 3.6977668901879652 0.09243958553388366
    vertex 134.47496304343264 6.805226890188037 0.09243958553390623
    vertex 135.94328604343255 5.616206890188107 0.09243958553390058
  endloop
endfacet
facet normal 4.270513406047122e-15 -4.203156562791094e-15 -1.0
  outer loop
    vertex 134.47496304343264 6.805226890188037 0.09243958553390623
    vertex 135.2890010434325 3.6977668901879652 0.09243958553388366
    vertex 134.38980304343258 4.06877689018798 0.09243958553387238
  endloop
endfacet
facet normal 4.270513406047122e-15 -4.203156562791094e-15 -1.0
  outer loop
    vertex 134.47496304343264 6.805226890188037 0.09243958553390623
    vertex 134.38980304343258 4.06877689018798 0.09243958553387238
    vertex 133.7978700434327 8.569116890188015 0.09243958553384418
  endloop
endfacet
facet normal 4.270513406047122e-15 -4.203156562791094e-15 -1.0
  outer loop
    vertex 133.7978700434327 8.569116890188015 0.09243958553384418
    vertex 134.38980304343258 4.06877689018798 0.09243958553387238
    vertex 133.94021204343267 4.464706890188101 0.09243958553386675
  endloop
endfacet
facet normal 4.270513406047122e-15 -4.203156562791094e-15 -1.0
  outer loop
    vertex 133.7978700434327 8.569116890188015 0.09243958553384418
    vertex 133.94021204343267 4.464706890188101 0.09243958553386675
    vertex 132.6069064434325 5.955456890188028 0.09243958553381598
  endloop
endfacet
facet normal 4.270513406047122e-15 -4.203156562791094e-15 -1.0
  outer loop
    vertex 133.7978700434327 8.569116890188015 0.09243958553384418
    vertex 132.6069064434325 5.955456890188028 0.09243958553381598
    vertex 133.49803704343302 16.450646890188064 0.09243958553382726
  endloop
endfacet
facet normal 4.270513406047122e-15 -4.203156562791094e-15 -1.0
  outer loop
    vertex 133.49803704343302 16.450646890188064 0.09243958553382726
    vertex 132.6069064434325 5.955456890188028 0.09243958553381598
    vertex 129.10736804343307 16.45064689018813 0.09243958553378778
  endloop
endfacet
facet normal 4.270513406047122e-15 -4.203156562791094e-15 -1.0
  outer loop
    vertex 129.10736804343307 16.45064689018813 0.09243958553378778
    vertex 132.6069064434325 5.955456890188028 0.09243958553381598
    vertex 132.03962474343268 6.950646890187951 0.09243958553383855
  endloop
endfacet
facet normal 4.270513406047122e-15 -4.203156562791094e-15 -1.0
  outer loop
    vertex 129.10736804343307 16.45064689018813 0.09243958553378778
    vertex 132.03962474343268 6.950646890187951 0.09243958553383855
    vertex 132.00736804343265 6.95064689018796 0.09243958553384983
  endloop
endfacet
facet normal 4.270513406047122e-15 -4.203156562791094e-15 -1.0
  outer loop
    vertex 129.10736804343307 16.45064689018813 0.09243958553378778
    vertex 132.00736804343265 6.95064689018796 0.09243958553384983
    vertex 127.60736804343269 11.350646890188115 0.09243958553385546
  endloop
endfacet
facet normal 4.270513406047122e-15 -4.203156562791094e-15 -1.0
  outer loop
    vertex 129.10736804343307 16.45064689018813 0.09243958553378778
    vertex 127.60736804343269 11.350646890188115 0.09243958553385546
    vertex 129.1073680434327 28.450646890188104 0.09243958553379343
  endloop
endfacet
facet normal 4.270513406047122e-15 -4.203156562791094e-15 -1.0
  outer loop
    vertex 143.60736804343264 28.450646890188025 0.09243958553388931
    vertex 143.6073680434328 46.450646890188 0.09243958553368627
    vertex 143.60736804343284 41.45064689018798 0.09243958553375958
  endloop
endfacet
facet normal 4.270513406047122e-15 -4.203156562791094e-15 -1.0
  outer loop
    vertex 143.6073680434328 46.450646890188 0.09243958553368627
    vertex 143.60736804343264 28.450646890188025 0.09243958553388931
    vertex 129.1073680434327 28.450646890188104 0.09243958553379343
  endloop
endfacet
facet normal 4.270513406047122e-15 -4.203156562791094e-15 -1.0
  outer loop
    vertex 143.6073680434328 46.450646890188 0.09243958553368627
    vertex 129.1073680434327 28.450646890188104 0.09243958553379343
    vertex 137.0073680434328 46.45064689018795 0.09243958553370318
  endloop
endfacet
facet normal 4.270513406047122e-15 -4.203156562791094e-15 -1.0
  outer loop
    vertex 137.0073680434328 46.45064689018795 0.09243958553370318
    vertex 129.1073680434327 28.450646890188104 0.09243958553379343
    vertex 127.60736804343279 37.05064689018812 0.09243958553376523
  endloop
endfacet
facet normal 4.270513406047122e-15 -4.203156562791094e-15 -1.0
  outer loop
    vertex 127.60736804343279 37.05064689018812 0.09243958553376523
    vertex 129.1073680434327 28.450646890188104 0.09243958553379343
    vertex 127.60736804343269 11.350646890188115 0.09243958553385546
  endloop
endfacet
facet normal 4.270513406047122e-15 -4.203156562791094e-15 -1.0
  outer loop
    vertex 127.60736804343279 37.05064689018812 0.09243958553376523
    vertex 127.60736804343269 11.350646890188115 0.09243958553385546
    vertex 124.10736804343269 14.850646890188235 0.09243958553384983
  endloop
endfacet
facet normal 4.270513406047122e-15 -4.203156562791094e-15 -1.0
  outer loop
    vertex 127.60736804343279 37.05064689018812 0.09243958553376523
    vertex 124.10736804343269 14.850646890188235 0.09243958553384983
    vertex 124.10736804343277 33.550646890188176 0.09243958553377651
  endloop
endfacet
facet normal 4.270513406047122e-15 -4.203156562791094e-15 -1.0
  outer loop
    vertex 139.58193304343274 14.274956890187967 0.09243958553385546
    vertex 138.20658104343295 17.42390689018796 0.09243958553381035
    vertex 140.16287604343293 17.00808689018804 0.09243958553387238
  endloop
endfacet
facet normal 4.270513406047122e-15 -4.203156562791094e-15 -1.0
  outer loop
    vertex 138.20658104343295 17.42390689018796 0.09243958553381035
    vertex 139.58193304343274 14.274956890187967 0.09243958553385546
    vertex 138.91246404343275 12.285086890187982 0.09243958553393443
  endloop
endfacet
facet normal 4.270513406047122e-15 -4.203156562791094e-15 -1.0
  outer loop
    vertex 138.20658104343295 17.42390689018796 0.09243958553381035
    vertex 138.91246404343275 12.285086890187982 0.09243958553393443
    vertex 137.62204404343274 14.673876890188017 0.09243958553388366
  endloop
endfacet
facet normal 4.270513406047122e-15 -4.203156562791094e-15 -1.0
  outer loop
    vertex 137.62204404343274 14.673876890188017 0.09243958553388366
    vertex 138.91246404343275 12.285086890187982 0.09243958553393443
    vertex 137.04634604343278 12.580646890188037 0.09243958553388931
  endloop
endfacet
facet normal 4.270513406047122e-15 -4.203156562791094e-15 -1.0
  outer loop
    vertex 137.62204404343274 14.673876890188017 0.09243958553388366
    vertex 137.04634604343278 12.580646890188037 0.09243958553388931
    vertex 136.04802404343266 14.508436890188106 0.09243958553391186
  endloop
endfacet
facet normal 4.270513406047122e-15 -4.203156562791094e-15 -1.0
  outer loop
    vertex 136.04802404343266 14.508436890188106 0.09243958553391186
    vertex 137.04634604343278 12.580646890188037 0.09243958553388931
    vertex 135.28245904343282 11.903556890188007 0.09243958553390623
  endloop
endfacet
facet normal 4.270513406047122e-15 -4.203156562791094e-15 -1.0
  outer loop
    vertex 136.04802404343266 14.508436890188106 0.09243958553391186
    vertex 135.28245904343282 11.903556890188007 0.09243958553390623
    vertex 134.9044960434329 17.076846890188072 0.09243958553387238
  endloop
endfacet
facet normal 4.270513406047122e-15 -4.203156562791094e-15 -1.0
  outer loop
    vertex 134.9044960434329 17.076846890188072 0.09243958553387238
    vertex 135.28245904343282 11.903556890188007 0.09243958553390623
    vertex 134.92787504343283 11.465686890188179 0.09243958553384983
  endloop
endfacet
facet normal 4.270513406047122e-15 -4.203156562791094e-15 -1.0
  outer loop
    vertex 134.9044960434329 17.076846890188072 0.09243958553387238
    vertex 134.92787504343283 11.465686890188179 0.09243958553384983
    vertex 134.09343404343264 10.435236890187959 0.09243958553390623
  endloop
endfacet
facet normal 4.270513406047122e-15 -4.203156562791094e-15 -1.0
  outer loop
    vertex 134.9044960434329 17.076846890188072 0.09243958553387238
    vertex 134.09343404343264 10.435236890187959 0.09243958553390623
    vertex 133.49803704343302 16.450646890188064 0.09243958553382726
  endloop
endfacet
facet normal 4.270513406047122e-15 -4.203156562791094e-15 -1.0
  outer loop
    vertex 133.49803704343302 16.450646890188064 0.09243958553382726
    vertex 134.09343404343264 10.435236890187959 0.09243958553390623
    vertex 133.7978700434327 8.569116890188015 0.09243958553384418
  endloop
endfacet
facet normal -0.7071067811865632 -0.7071067811865318 -7.994159117853776e-15
  outer loop
    vertex 127.60736804343261 11.35064689018813 2.5924395855337776
    vertex 124.10736804343269 14.850646890188235 0.09243958553384983
    vertex 127.60736804343269 11.350646890188115 0.09243958553385546
  endloop
endfacet
facet normal -0.7071067811865632 -0.7071067811865318 -7.994159117853776e-15
  outer loop
    vertex 124.10736804343269 14.850646890188235 0.09243958553384983
    vertex 127.60736804343261 11.35064689018813 2.5924395855337776
    vertex 124.10736804343269 14.85064689018823 2.5924395855337523
  endloop
endfacet
facet normal -1.0 4.714403258745005e-15 -9.755877082002699e-30
  outer loop
    vertex 124.10736804343277 33.550646890188204 2.592439585533707
    vertex 124.10736804343269 14.850646890188235 0.09243958553384983
    vertex 124.10736804343269 14.85064689018823 2.5924395855337523
  endloop
endfacet
facet normal -1.0 4.714403258745005e-15 -9.755877082002699e-30
  outer loop
    vertex 124.10736804343269 14.850646890188235 0.09243958553384983
    vertex 124.10736804343277 33.550646890188204 2.592439585533707
    vertex 124.10736804343277 33.550646890188176 0.09243958553377651
  endloop
endfacet
facet normal 5.197731282740515e-15 -4.3576253716537836e-15 -1.0
  outer loop
    vertex 131.8174319434326 2.553346890188039 0.09243958553388366
    vertex 132.6069064434325 5.955456890188028 0.09243958553381598
    vertex 133.94021204343267 4.464706890188101 0.09243958553386675
  endloop
endfacet
facet normal 5.197731282740515e-15 -4.3576253716537836e-15 -1.0
  outer loop
    vertex 132.6069064434325 5.955456890188028 0.09243958553381598
    vertex 131.8174319434326 2.553346890188039 0.09243958553388366
    vertex 130.47917104343253 4.039636890188038 0.09243958553390623
  endloop
endfacet
facet normal 5.197731282740515e-15 -4.3576253716537836e-15 -1.0
  outer loop
    vertex 143.1098340434327 8.542336890187988 0.09243958553399646
    vertex 145.72705404343276 10.828436890187948 0.09243958553396826
    vertex 145.93611404343275 8.839386890187921 0.09243958553393443
  endloop
endfacet
facet normal 5.197731282740515e-15 -4.3576253716537836e-15 -1.0
  outer loop
    vertex 145.72705404343276 10.828436890187948 0.09243958553396826
    vertex 143.1098340434327 8.542336890187988 0.09243958553399646
    vertex 142.89005404343266 10.53024689018787 0.09243958553385546
  endloop
endfacet
facet normal 0.6691293594294211 -0.7431459482158083 6.481587941118474e-15
  outer loop
    vertex 144.37658404343273 13.861656890188032 0.09243958553394571
    vertex 144.3765840434328 13.861656890188012 2.5924395855339917
    vertex 142.28010704343257 11.97398689018788 2.5924395855338846
  endloop
endfacet
facet normal -0.9781475950402497 0.2079117176038325 -5.935837562613042e-15
  outer loop
    vertex 138.20658104343295 17.42390689018796 0.09243958553381035
    vertex 137.62204404343274 14.673876890188017 0.09243958553388366
    vertex 137.62204404343274 14.673876890187978 2.5924395855338678
  endloop
endfacet
facet normal 0.7431427188340383 0.6691329460159271 1.552053285377298e-15
  outer loop
    vertex 143.03831404343285 15.347946890187973 0.09243958553390058
    vertex 144.3765840434328 13.861656890188012 2.5924395855339917
    vertex 144.37658404343273 13.861656890188032 0.09243958553394571
  endloop
endfacet
facet normal 5.197731282740515e-15 -4.3576253716537836e-15 -1.0
  outer loop
    vertex 142.28010704343276 11.973986890188073 0.09243958553391186
    vertex 143.03831404343285 15.347946890187973 0.09243958553390058
    vertex 144.37658404343273 13.861656890188032 0.09243958553394571
  endloop
endfacet
facet normal 5.197731282740515e-15 -4.3576253716537836e-15 -1.0
  outer loop
    vertex 143.03831404343285 15.347946890187973 0.09243958553390058
    vertex 142.28010704343276 11.973986890188073 0.09243958553391186
    vertex 141.2280400434329 13.26587689018813 0.09243958553394006
  endloop
endfacet
facet normal 5.197731282740515e-15 -4.3576253716537836e-15 -1.0
  outer loop
    vertex 143.03831404343285 15.347946890187973 0.09243958553390058
    vertex 141.2280400434329 13.26587689018813 0.09243958553394006
    vertex 140.93114904343278 13.450636890187983 0.09243958553384983
  endloop
endfacet
facet normal 0.743142718834038 0.6691329460159274 1.3300086804522663e-15
  outer loop
    vertex 143.03831404343276 15.34794689018807 2.592439585533941
    vertex 144.3765840434328 13.861656890188012 2.5924395855339917
    vertex 143.03831404343285 15.347946890187973 0.09243958553390058
  endloop
endfacet
facet normal -0.6691325758644245 0.7431430521218914 -6.759141044643891e-15
  outer loop
    vertex 143.03831404343285 15.347946890187973 0.09243958553390058
    vertex 140.93114904343275 13.450636890187962 2.592439585533862
    vertex 143.03831404343276 15.34794689018807 2.592439585533941
  endloop
endfacet
facet normal -0.9781475950402496 0.20791171760383295 -5.9358375626130405e-15
  outer loop
    vertex 138.2065810434329 17.42390689018798 2.592439585533862
    vertex 138.20658104343295 17.42390689018796 0.09243958553381035
    vertex 137.62204404343274 14.673876890187978 2.5924395855338678
  endloop
endfacet
facet normal -0.6691325758644244 0.7431430521218916 -7.03669680080018e-15
  outer loop
    vertex 140.93114904343278 13.450636890187983 0.09243958553384983
    vertex 140.93114904343275 13.450636890187962 2.592439585533862
    vertex 143.03831404343285 15.347946890187973 0.09243958553390058
  endloop
endfacet
facet normal 0.9781477255846664 -0.2079111034397741 5.8248146976167865e-15
  outer loop
    vertex 140.16287604343293 17.00808689018804 0.09243958553387238
    vertex 139.58193304343277 14.274956890187989 2.592439585533893
    vertex 139.58193304343274 14.274956890187967 0.09243958553385546
  endloop
endfacet
facet normal 0.9781477255846664 -0.2079111034397741 5.8248146976167865e-15
  outer loop
    vertex 139.58193304343277 14.274956890187989 2.592439585533893
    vertex 140.16287604343293 17.00808689018804 0.09243958553387238
    vertex 140.16287604343293 17.008086890188068 2.5924395855338878
  endloop
endfacet
facet normal 0.6691293594294211 -0.7431459482158083 6.481587941118474e-15
  outer loop
    vertex 142.28010704343276 11.973986890188073 0.09243958553391186
    vertex 144.37658404343273 13.861656890188032 0.09243958553394571
    vertex 142.28010704343257 11.97398689018788 2.5924395855338846
  endloop
endfacet
facet normal 0.20791009357450987 0.9781479402369758 -3.2273873026239544e-15
  outer loop
    vertex 140.16287604343293 17.00808689018804 0.09243958553387238
    vertex 138.2065810434329 17.42390689018798 2.592439585533862
    vertex 140.16287604343293 17.008086890188068 2.5924395855338878
  endloop
endfacet
facet normal 0.20791009357450987 0.9781479402369758 -3.2273873026239544e-15
  outer loop
    vertex 138.2065810434329 17.42390689018798 2.592439585533862
    vertex 140.16287604343293 17.00808689018804 0.09243958553387238
    vertex 138.20658104343295 17.42390689018796 0.09243958553381035
  endloop
endfacet
facet normal 0.9384299380313756 0.3454696099607441 3.2501641064968107e-15
  outer loop
    vertex 142.4232910434328 11.798156890188013 0.09243958553388931
    vertex 142.89005404343266 10.530246890187938 2.592439585533896
    vertex 142.89005404343266 10.53024689018787 0.09243958553385546
  endloop
endfacet
facet normal 0.7754182769645022 0.6314479358976502 1.225747784255271e-15
  outer loop
    vertex 142.28010704343276 11.973986890188073 0.09243958553391186
    vertex 142.28010704343257 11.97398689018788 2.5924395855338846
    vertex 142.4232910434328 11.798156890188013 0.09243958553388931
  endloop
endfacet
facet normal -0.40673887020236354 0.9135444660587162 -5.7772388922777114e-15
  outer loop
    vertex 133.49803704343302 16.450646890188064 0.09243958553382726
    vertex 133.49803704343287 16.450646890188054 2.5924395855338256
    vertex 134.9044960434329 17.076846890188072 0.09243958553387238
  endloop
endfacet
facet normal -0.10453168244132667 0.9945215570142187 -4.2970963282504085e-15
  outer loop
    vertex 145.72705404343276 10.828436890187948 0.09243958553396826
    vertex 142.89005404343266 10.530246890187938 2.592439585533896
    vertex 145.72705404343256 10.828436890187971 2.5924395855339526
  endloop
endfacet
facet normal -0.10453168244132667 0.9945215570142187 -4.2970963282504085e-15
  outer loop
    vertex 142.89005404343266 10.53024689018787 0.09243958553385546
    vertex 142.89005404343266 10.530246890187938 2.592439585533896
    vertex 145.72705404343276 10.828436890187948 0.09243958553396826
  endloop
endfacet
facet normal 0.9945217695374781 0.10452966046076809 4.796177932719782e-15
  outer loop
    vertex 145.72705404343256 10.828436890187971 2.5924395855339526
    vertex 145.93611404343284 8.83938689018796 2.592439585533995
    vertex 145.72705404343276 10.828436890187948 0.09243958553396826
  endloop
endfacet
facet normal -0.10453085776085155 0.9945216436939825 -3.7419848953307726e-15
  outer loop
    vertex 137.62204404343274 14.673876890188017 0.09243958553388366
    vertex 136.0480240434327 14.508436890187971 2.59243958553384
    vertex 137.62204404343274 14.673876890187978 2.5924395855338678
  endloop
endfacet
facet normal 0.9945217695374781 0.10452966046076809 4.796177932719782e-15
  outer loop
    vertex 145.72705404343276 10.828436890187948 0.09243958553396826
    vertex 145.93611404343284 8.83938689018796 2.592439585533995
    vertex 145.93611404343275 8.839386890187921 0.09243958553393443
  endloop
endfacet
facet normal 0.9997571657189526 0.022036551309284943 5.101587036337845e-15
  outer loop
    vertex 143.1098340434327 8.542336890187988 0.09243958553399646
    vertex 143.10983404343284 8.542336890187823 2.592439585533975
    vertex 143.11893404343286 8.12948689018801 2.5924395855340006
  endloop
endfacet
facet normal 0.9135456965444105 0.4067361064931264 3.0413923736629477e-15
  outer loop
    vertex 134.9044960434329 17.076846890188072 0.09243958553387238
    vertex 136.0480240434327 14.508436890187971 2.59243958553384
    vertex 136.04802404343266 14.508436890188106 0.09243958553391186
  endloop
endfacet
facet normal 0.528360560729947 0.8490200927334619 -5.000906094844146e-16
  outer loop
    vertex 140.93114904343278 13.450636890187983 0.09243958553384983
    vertex 139.62098304343272 14.265976890188004 0.09243958553389495
    vertex 140.93114904343275 13.450636890187962 2.592439585533862
  endloop
endfacet
facet normal 0.528360560729947 0.8490200927334619 -5.000906094844146e-16
  outer loop
    vertex 139.62098304343272 14.265976890188004 0.09243958553389495
    vertex 139.62098304343277 14.265976890187984 2.5924395855338425
    vertex 140.93114904343275 13.450636890187962 2.592439585533862
  endloop
endfacet
facet normal -0.40673887020236316 0.9135444660587163 -5.943772345971483e-15
  outer loop
    vertex 134.9044960434329 17.076846890188072 0.09243958553387238
    vertex 133.49803704343287 16.450646890188054 2.5924395855338256
    vertex 134.9044960434329 17.07684689018814 2.59243958553382
  endloop
endfacet
facet normal 0.22411213838647562 0.97456336347507 -2.224903344746265e-15
  outer loop
    vertex 139.58193304343274 14.274956890187967 0.09243958553385546
    vertex 139.58193304343277 14.274956890187989 2.592439585533893
    vertex 139.62098304343272 14.265976890188004 0.09243958553389495
  endloop
endfacet
facet normal 0.9527453153229442 -0.3037702489220827 6.2318044673056834e-15
  outer loop
    vertex 143.11893404343286 8.12948689018801 2.5924395855340006
    vertex 142.76622404343263 7.023246890188008 2.592439585533947
    vertex 143.11893404343274 8.12948689018793 0.09243958553395698
  endloop
endfacet
facet normal 0.9527453153229442 -0.3037702489220827 6.2318044673056834e-15
  outer loop
    vertex 143.11893404343274 8.12948689018793 0.09243958553395698
    vertex 142.76622404343263 7.023246890188008 2.592439585533947
    vertex 142.76622404343271 7.023246890187902 0.09243958553392315
  endloop
endfacet
facet normal 0.49999727390368326 0.8660269776911602 -1.1262904571154314e-15
  outer loop
    vertex 142.76622404343271 7.023246890187902 0.09243958553392315
    vertex 142.76622404343263 7.023246890188008 2.592439585533947
    vertex 145.24579404343257 5.591676890187921 2.592439585534009
  endloop
endfacet
facet normal 0.49999727390368276 0.8660269776911604 -4.0464549110907976e-16
  outer loop
    vertex 142.76622404343271 7.023246890187902 0.09243958553392315
    vertex 145.24579404343257 5.591676890187921 2.592439585534009
    vertex 145.24579404343243 5.591676890187824 0.09243958553393443
  endloop
endfacet
facet normal 0.866026552831464 -0.4999980097868906 6.314391629651747e-15
  outer loop
    vertex 145.24579404343257 5.591676890187921 2.592439585534009
    vertex 144.2457940434327 3.859616890187939 2.5924395855339637
    vertex 145.24579404343243 5.591676890187824 0.09243958553393443
  endloop
endfacet
facet normal -0.49999897607487487 -0.8660259949470783 5.711780446741397e-16
  outer loop
    vertex 141.7720030434327 5.287856890187975 0.09243958553392878
    vertex 144.24579404343268 3.8596168901879024 0.09243958553400775
    vertex 144.2457940434327 3.859616890187939 2.5924395855339637
  endloop
endfacet
facet normal 0.8024885321633164 -0.5966675420586962 6.736001447958314e-15
  outer loop
    vertex 141.77200304343276 5.287856890188048 2.5924395855338735
    vertex 141.41455504343293 4.807106890188094 2.5924395855338314
    vertex 141.7720030434327 5.287856890187975 0.09243958553392878
  endloop
endfacet
facet normal 0.8024885321633164 -0.5966675420586962 6.736001447958314e-15
  outer loop
    vertex 141.7720030434327 5.287856890187975 0.09243958553392878
    vertex 141.41455504343293 4.807106890188094 2.5924395855338314
    vertex 141.41455504343287 4.807106890188058 0.09243958553388931
  endloop
endfacet
facet normal 0.10452707179133232 -0.9945220416173439 3.5754518061085324e-15
  outer loop
    vertex 145.93611404343275 8.839386890187921 0.09243958553393443
    vertex 143.10983404343284 8.542336890187823 2.592439585533975
    vertex 143.1098340434327 8.542336890187988 0.09243958553399646
  endloop
endfacet
facet normal 0.10452707179133232 -0.9945220416173439 3.5754518061085324e-15
  outer loop
    vertex 145.93611404343275 8.839386890187921 0.09243958553393443
    vertex 145.93611404343284 8.83938689018796 2.592439585533995
    vertex 143.10983404343284 8.542336890187823 2.592439585533975
  endloop
endfacet
facet normal 0.9384299380313756 0.3454696099607441 3.2085307430733673e-15
  outer loop
    vertex 142.42329104343267 11.798156890188027 2.5924395855339526
    vertex 142.89005404343266 10.530246890187938 2.592439585533896
    vertex 142.4232910434328 11.798156890188013 0.09243958553388931
  endloop
endfacet
facet normal 0.8660265528314641 -0.4999980097868906 6.314391629651747e-15
  outer loop
    vertex 145.24579404343243 5.591676890187824 0.09243958553393443
    vertex 144.2457940434327 3.859616890187939 2.5924395855339637
    vertex 144.24579404343268 3.8596168901879024 0.09243958553400775
  endloop
endfacet
facet normal 0.5652658493942905 -0.8249087946606893 6.528721736115492e-15
  outer loop
    vertex 141.41455504343287 4.807106890188058 0.09243958553388931
    vertex 140.6121430434328 4.257256890188019 2.5924395855339073
    vertex 140.61214304343275 4.2572568901880965 0.09243958553392315
  endloop
endfacet
facet normal 0.9135456965444105 0.4067361064931264 3.0413923736629477e-15
  outer loop
    vertex 134.9044960434329 17.07684689018814 2.59243958553382
    vertex 136.0480240434327 14.508436890187971 2.59243958553384
    vertex 134.9044960434329 17.076846890188072 0.09243958553387238
  endloop
endfacet
facet normal 0.9135453089066445 0.40673697714206375 3.041391576205988e-15
  outer loop
    vertex 140.61214304343275 4.2572568901880965 0.09243958553392315
    vertex 140.6121430434328 4.257256890188019 2.5924395855339073
    vertex 141.7783450434327 1.6379268901879256 2.592439585533896
  endloop
endfacet
facet normal -0.4999989760748747 -0.8660259949470783 5.711780446741397e-16
  outer loop
    vertex 141.7720030434327 5.287856890187975 0.09243958553392878
    vertex 144.2457940434327 3.859616890187939 2.5924395855339637
    vertex 141.77200304343276 5.287856890188048 2.5924395855338735
  endloop
endfacet
facet normal 0.4067394289036121 -0.9135442173070571 5.77723866443761e-15
  outer loop
    vertex 139.95125404343273 0.8244468901880532 0.09243958553392315
    vertex 141.77834504343252 1.6379268901879653 0.09243958553399083
    vertex 139.9512540434327 0.8244468901880568 2.592439585533975
  endloop
endfacet
facet normal 0.40673942890361264 -0.9135442173070569 6.165816723056415e-15
  outer loop
    vertex 141.77834504343252 1.6379268901879653 0.09243958553399083
    vertex 141.7783450434327 1.6379268901879256 2.592439585533896
    vertex 139.9512540434327 0.8244468901880568 2.592439585533975
  endloop
endfacet
facet normal 0.22411213838688382 0.9745633634749761 -3.2796152181400777e-15
  outer loop
    vertex 139.62098304343272 14.265976890188004 0.09243958553389495
    vertex 139.58193304343277 14.274956890187989 2.592439585533893
    vertex 139.62098304343277 14.265976890187984 2.5924395855338425
  endloop
endfacet
facet normal -0.9135454162953307 -0.40673673594327725 -3.2911919776688164e-15
  outer loop
    vertex 138.7859700434325 3.441716890187992 2.5924395855339215
    vertex 138.7859700434326 3.4417168901879833 0.09243958553390058
    vertex 139.9512540434327 0.8244468901880568 2.592439585533975
  endloop
endfacet
facet normal -0.9135454162953307 -0.406736735943277 -3.0413917971281566e-15
  outer loop
    vertex 138.7859700434326 3.4417168901879833 0.09243958553390058
    vertex 139.95125404343273 0.8244468901880532 0.09243958553392315
    vertex 139.9512540434327 0.8244468901880568 2.592439585533975
  endloop
endfacet
facet normal 0.26678889509586634 -0.9637549924402607 4.102382732144271e-15
  outer loop
    vertex 138.7859700434326 3.4417168901879833 0.09243958553390058
    vertex 138.0289140434327 3.2321468901880195 2.592439585533862
    vertex 138.02891404343274 3.2321468901880697 0.09243958553390623
  endloop
endfacet
facet normal -0.06058330777266072 -0.9981631443903963 5.1330990503940265e-15
  outer loop
    vertex 137.24482704343257 3.2797368901879933 0.09243958553387803
    vertex 138.02891404343274 3.2321468901880697 0.09243958553390623
    vertex 138.0289140434327 3.2321468901880195 2.592439585533862
  endloop
endfacet
facet normal 0.26678889509586634 -0.9637549924402607 4.102382732144271e-15
  outer loop
    vertex 138.7859700434326 3.4417168901879833 0.09243958553390058
    vertex 138.7859700434325 3.441716890187992 2.5924395855339215
    vertex 138.0289140434327 3.2321468901880195 2.592439585533862
  endloop
endfacet
facet normal 0.9997571657189526 0.022036551309284946 5.107658568503764e-15
  outer loop
    vertex 143.1098340434327 8.542336890187988 0.09243958553399646
    vertex 143.11893404343286 8.12948689018801 2.5924395855340006
    vertex 143.11893404343274 8.12948689018793 0.09243958553395698
  endloop
endfacet
facet normal 0.9135453089066443 0.40673697714206386 3.069147151821617e-15
  outer loop
    vertex 140.61214304343275 4.2572568901880965 0.09243958553392315
    vertex 141.7783450434327 1.6379268901879256 2.592439585533896
    vertex 141.77834504343252 1.6379268901879653 0.09243958553399083
  endloop
endfacet
facet normal 0.7754182769645022 0.6314479358976502 1.225747784255271e-15
  outer loop
    vertex 142.28010704343257 11.97398689018788 2.5924395855338846
    vertex 142.42329104343267 11.798156890188027 2.5924395855339526
    vertex 142.4232910434328 11.798156890188013 0.09243958553388931
  endloop
endfacet
facet normal 0.5652658493942901 -0.8249087946606897 6.917299794734299e-15
  outer loop
    vertex 141.41455504343287 4.807106890188058 0.09243958553388931
    vertex 141.41455504343293 4.807106890188094 2.5924395855338314
    vertex 140.6121430434328 4.257256890188019 2.5924395855339073
  endloop
endfacet
facet normal -0.10453085776085155 0.9945216436939825 -3.7419848953307726e-15
  outer loop
    vertex 137.62204404343274 14.673876890188017 0.09243958553388366
    vertex 136.04802404343266 14.508436890188106 0.09243958553391186
    vertex 136.0480240434327 14.508436890187971 2.59243958553384
  endloop
endfacet
facet normal -0.06058330777266072 -0.9981631443903963 5.1330990503940265e-15
  outer loop
    vertex 137.24482704343257 3.2797368901879933 0.09243958553387803
    vertex 138.0289140434327 3.2321468901880195 2.592439585533862
    vertex 137.24482704343257 3.279736890187973 2.5924395855339046
  endloop
endfacet
facet normal 0.9781475922579341 -0.20791173069359659 5.8386930599477006e-15
  outer loop
    vertex 137.24482704343257 3.2797368901879933 0.09243958553387803
    vertex 137.24482704343257 3.279736890187973 2.5924395855339046
    vertex 136.64916904343266 0.47738689018796066 2.592439585533913
  endloop
endfacet
facet normal -0.9335805916668467 -0.3583675192633686 -3.5159062290543276e-15
  outer loop
    vertex 140.38078704343278 11.096066890187977 0.09243958553391186
    vertex 141.05788004343262 9.33217689018794 0.09243958553391186
    vertex 141.0578800434328 9.332176890187974 2.592439585533927
  endloop
endfacet
facet normal -0.9335805916668467 -0.3583675192633686 -3.5159062290543276e-15
  outer loop
    vertex 140.38078704343258 11.096066890188068 2.5924395855339806
    vertex 140.38078704343278 11.096066890187977 0.09243958553391186
    vertex 141.0578800434328 9.332176890187974 2.592439585533927
  endloop
endfacet
facet normal -0.6293189458793865 -0.7771471317307026 -6.759633034671744e-16
  outer loop
    vertex 140.38078704343278 11.096066890187977 0.09243958553391186
    vertex 140.38078704343258 11.096066890188068 2.5924395855339806
    vertex 138.91246404343275 12.285086890187982 0.09243958553393443
  endloop
endfacet
facet normal -0.6293189458793865 -0.7771471317307026 -6.759633034671744e-16
  outer loop
    vertex 138.91246404343275 12.285086890187982 0.09243958553393443
    vertex 140.38078704343258 11.096066890188068 2.5924395855339806
    vertex 138.91246404343266 12.285086890187939 2.592439585533845
  endloop
endfacet
facet normal 0.15643753456768153 0.9876878544248611 -3.069591780647261e-15
  outer loop
    vertex 135.94328604343255 5.616206890188107 0.09243958553390058
    vertex 135.94328604343264 5.616206890188095 2.5924395855339046
    vertex 137.8094040434327 5.320636890188114 2.592439585533851
  endloop
endfacet
facet normal 0.6293189458793864 0.7771471317307027 6.759633034671743e-16
  outer loop
    vertex 134.47496304343264 6.805226890188037 0.09243958553390623
    vertex 134.4749630434326 6.805226890188183 2.5924395855338735
    vertex 135.94328604343264 5.616206890188095 2.5924395855339046
  endloop
endfacet
facet normal -0.38141071527290854 -0.9244056827362155 2.067939917368836e-15
  outer loop
    vertex 134.38980304343258 4.06877689018798 0.09243958553387238
    vertex 135.2890010434326 3.697766890187944 2.592439585533862
    vertex 134.38980304343264 4.068776890187956 2.592439585533927
  endloop
endfacet
facet normal 0.9876883709981517 -0.1564342730830354 5.7360319552985025e-15
  outer loop
    vertex 134.09343404343267 10.435236890187998 2.592439585533845
    vertex 133.79787004343282 8.569116890188004 2.5924395855338846
    vertex 134.09343404343264 10.435236890187959 0.09243958553390623
  endloop
endfacet
facet normal 0.669130647501972 -0.7431447884319662 6.786898210604944e-15
  outer loop
    vertex 133.94021204343267 4.464706890188101 0.09243958553386675
    vertex 133.94021204343272 4.4647068901880935 2.592439585533913
    vertex 131.81743194343252 2.553346890188024 2.592439585533893
  endloop
endfacet
facet normal -0.15643237134831212 -0.9876886722010857 3.1806148321388214e-15
  outer loop
    vertex 137.04634604343278 12.580646890188037 0.09243958553388931
    vertex 138.91246404343266 12.285086890187939 2.592439585533845
    vertex 137.04634604343275 12.580646890188019 2.5924395855338904
  endloop
endfacet
facet normal 0.9335805916668464 0.35836751926336885 3.391006138783996e-15
  outer loop
    vertex 133.7978700434327 8.569116890188015 0.09243958553384418
    vertex 133.79787004343282 8.569116890188004 2.5924395855338846
    vertex 134.4749630434326 6.805226890188183 2.5924395855338735
  endloop
endfacet
facet normal 0.6293189458793865 0.7771471317307026 6.759633034671744e-16
  outer loop
    vertex 135.94328604343255 5.616206890188107 0.09243958553390058
    vertex 134.47496304343264 6.805226890188037 0.09243958553390623
    vertex 135.94328604343264 5.616206890188095 2.5924395855339046
  endloop
endfacet
facet normal 0.15643753456768153 0.9876878544248611 -3.069591780647261e-15
  outer loop
    vertex 137.80940404343266 5.320636890188026 0.09243958553387238
    vertex 135.94328604343255 5.616206890188107 0.09243958553390058
    vertex 137.8094040434327 5.320636890188114 2.592439585533851
  endloop
endfacet
facet normal -0.9876883709981517 0.156434273083035 -5.756848637010224e-15
  outer loop
    vertex 141.05788004343262 9.33217689018794 0.09243958553391186
    vertex 140.7623160434327 7.466056890187998 0.09243958553391186
    vertex 140.76231604343278 7.466056890187981 2.5924395855339664
  endloop
endfacet
facet normal -0.20791009357451515 -0.9781479402369749 2.9498315464676652e-15
  outer loop
    vertex 134.69287404343277 0.8932068901880026 0.09243958553391186
    vertex 136.64916904343266 0.47738689018796066 2.592439585533913
    vertex 134.69287404343274 0.8932068901880262 2.592439585533876
  endloop
endfacet
facet normal -0.6691303055793865 0.7431450963003369 -6.287298131510728e-15
  outer loop
    vertex 132.6069064434325 5.955456890188028 0.09243958553381598
    vertex 130.47917104343261 4.03963689018807 2.5924395855338678
    vertex 132.60690644343273 5.955456890188003 2.592439585533882
  endloop
endfacet
facet normal -0.6691303055793865 0.7431450963003369 -6.287298131510728e-15
  outer loop
    vertex 130.47917104343261 4.03963689018807 2.5924395855338678
    vertex 132.6069064434325 5.955456890188028 0.09243958553381598
    vertex 130.47917104343253 4.039636890188038 0.09243958553390623
  endloop
endfacet
facet normal -0.8687684817398176 -0.4952184620301349 -3.0991262543191304e-15
  outer loop
    vertex 132.0396247434326 6.950646890187971 2.5924395855338904
    vertex 132.6069064434325 5.955456890188028 0.09243958553381598
    vertex 132.60690644343273 5.955456890188003 2.592439585533882
  endloop
endfacet
facet normal -0.8687684817398176 -0.4952184620301349 -3.0991262543191304e-15
  outer loop
    vertex 132.6069064434325 5.955456890188028 0.09243958553381598
    vertex 132.0396247434326 6.950646890187971 2.5924395855338904
    vertex 132.03962474343268 6.950646890187951 0.09243958553383855
  endloop
endfacet
facet normal -0.6609005884928825 -0.7504734586444491 -5.061055981174108e-16
  outer loop
    vertex 133.94021204343267 4.464706890188101 0.09243958553386675
    vertex 134.38980304343264 4.068776890187956 2.592439585533927
    vertex 133.94021204343272 4.4647068901880935 2.592439585533913
  endloop
endfacet
facet normal 0.35836666658921185 -0.9335809189768913 5.351501750800948e-15
  outer loop
    vertex 137.04634604343278 12.580646890188037 0.09243958553388931
    vertex 137.04634604343275 12.580646890188019 2.5924395855338904
    vertex 135.28245904343277 11.9035568901881 2.5924395855338536
  endloop
endfacet
facet normal 0.777145514207001 -0.6293209433567912 -6.744246318699635e-07
  outer loop
    vertex 134.92787504343283 11.465686890188179 0.09243958553384983
    vertex 134.91569804343257 11.450646890188073 2.5924395855339215
    vertex 134.09343404343267 10.435236890187998 2.592439585533845
  endloop
endfacet
facet normal -0.9781476454613279 0.2079114803912002 -5.880326194110669e-15
  outer loop
    vertex 134.69287404343274 0.8932068901880262 2.592439585533876
    vertex 135.2890010434325 3.6977668901879652 0.09243958553388366
    vertex 134.69287404343277 0.8932068901880026 0.09243958553391186
  endloop
endfacet
facet normal -0.9781476454613279 0.2079114803912002 -5.880326194110669e-15
  outer loop
    vertex 135.2890010434325 3.6977668901879652 0.09243958553388366
    vertex 134.69287404343274 0.8932068901880262 2.592439585533876
    vertex 135.2890010434326 3.697766890187944 2.592439585533862
  endloop
endfacet
facet normal 0.7771463144488228 -0.6293199551409532 6.2940641176637525e-15
  outer loop
    vertex 134.92787504343283 11.465686890188179 0.09243958553384983
    vertex 134.09343404343267 10.435236890187998 2.592439585533845
    vertex 134.09343404343264 10.435236890187959 0.09243958553390623
  endloop
endfacet
facet normal -0.7431449813685481 -0.6691304332241513 -9.136773477692435e-16
  outer loop
    vertex 130.47917104343261 4.03963689018807 2.5924395855338678
    vertex 131.8174319434326 2.553346890188039 0.09243958553388366
    vertex 131.81743194343252 2.553346890188024 2.592439585533893
  endloop
endfacet
facet normal -0.7431449813685481 -0.6691304332241513 -9.136773477692435e-16
  outer loop
    vertex 131.8174319434326 2.553346890188039 0.09243958553388366
    vertex 130.47917104343261 4.03963689018807 2.5924395855338678
    vertex 130.47917104343253 4.039636890188038 0.09243958553390623
  endloop
endfacet
facet normal 0.9781475922579341 -0.20791173069359659 5.8386930599477006e-15
  outer loop
    vertex 137.24482704343257 3.2797368901879933 0.09243958553387803
    vertex 136.64916904343266 0.47738689018796066 2.592439585533913
    vertex 136.64916904343272 0.47738689018795977 0.09243958553391186
  endloop
endfacet
facet normal -0.20791009357451515 -0.9781479402369749 2.9498315464676652e-15
  outer loop
    vertex 136.64916904343272 0.47738689018795977 0.09243958553391186
    vertex 136.64916904343266 0.47738689018796066 2.592439585533913
    vertex 134.69287404343277 0.8932068901880026 0.09243958553391186
  endloop
endfacet
facet normal -0.38141071527290876 -0.9244056827362154 1.9569176149063203e-15
  outer loop
    vertex 134.38980304343258 4.06877689018798 0.09243958553387238
    vertex 135.2890010434325 3.6977668901879652 0.09243958553388366
    vertex 135.2890010434326 3.697766890187944 2.592439585533862
  endloop
endfacet
facet normal -0.15643237134831212 -0.9876886722010857 3.1806148321388214e-15
  outer loop
    vertex 137.04634604343278 12.580646890188037 0.09243958553388931
    vertex 138.91246404343275 12.285086890187982 0.09243958553393443
    vertex 138.91246404343266 12.285086890187939 2.592439585533845
  endloop
endfacet
facet normal 0.7771445234681691 -0.6293221668139716 6.516110748335287e-15
  outer loop
    vertex 135.28245904343277 11.9035568901881 2.5924395855338536
    vertex 134.91569804343257 11.450646890188073 2.5924395855339215
    vertex 135.28245904343282 11.903556890188007 0.09243958553390623
  endloop
endfacet
facet normal 0.6691306475019723 -0.7431447884319659 7.0089428155299735e-15
  outer loop
    vertex 133.94021204343267 4.464706890188101 0.09243958553386675
    vertex 131.81743194343252 2.553346890188024 2.592439585533893
    vertex 131.8174319434326 2.553346890188039 0.09243958553388366
  endloop
endfacet
facet normal 0.7771426062128134 -0.6293245344083225 -7.101926559403086e-07
  outer loop
    vertex 135.28245904343282 11.903556890188007 0.09243958553390623
    vertex 134.91569804343257 11.450646890188073 2.5924395855339215
    vertex 134.92787504343283 11.465686890188179 0.09243958553384983
  endloop
endfacet
facet normal 0.9876883709981517 -0.15643427308303542 5.729093061394595e-15
  outer loop
    vertex 134.09343404343264 10.435236890187959 0.09243958553390623
    vertex 133.79787004343282 8.569116890188004 2.5924395855338846
    vertex 133.7978700434327 8.569116890188015 0.09243958553384418
  endloop
endfacet
facet normal -0.3583712795939998 0.933579148204457 -6.128656246127887e-15
  outer loop
    vertex 137.80940404343266 5.320636890188026 0.09243958553387238
    vertex 137.8094040434327 5.320636890188114 2.592439585533851
    vertex 139.57329104343248 5.9977368901881105 0.09243958553391751
  endloop
endfacet
facet normal 0.35836666658921185 -0.9335809189768913 5.351501750800948e-15
  outer loop
    vertex 137.04634604343278 12.580646890188037 0.09243958553388931
    vertex 135.28245904343277 11.9035568901881 2.5924395855338536
    vertex 135.28245904343282 11.903556890188007 0.09243958553390623
  endloop
endfacet
facet normal -0.6609005884928822 -0.7504734586444493 -4.22838871270524e-16
  outer loop
    vertex 133.94021204343267 4.464706890188101 0.09243958553386675
    vertex 134.38980304343258 4.06877689018798 0.09243958553387238
    vertex 134.38980304343264 4.068776890187956 2.592439585533927
  endloop
endfacet
facet normal -0.3583712795939998 0.933579148204457 -6.128656246127887e-15
  outer loop
    vertex 139.57329104343248 5.9977368901881105 0.09243958553391751
    vertex 137.8094040434327 5.320636890188114 2.592439585533851
    vertex 139.57329104343268 5.997736890188055 2.592439585533851
  endloop
endfacet
facet normal -0.7771452086091502 0.6293213207383336 -6.099776339151414e-15
  outer loop
    vertex 140.7623160434327 7.466056890187998 0.09243958553391186
    vertex 139.57329104343248 5.9977368901881105 0.09243958553391751
    vertex 139.57329104343268 5.997736890188055 2.592439585533851
  endloop
endfacet
facet normal 0.9335805916668464 0.35836751926336885 3.391006138783996e-15
  outer loop
    vertex 133.7978700434327 8.569116890188015 0.09243958553384418
    vertex 134.4749630434326 6.805226890188183 2.5924395855338735
    vertex 134.47496304343264 6.805226890188037 0.09243958553390623
  endloop
endfacet
facet normal -0.77714520860915 0.6293213207383336 -6.044265187920156e-15
  outer loop
    vertex 140.7623160434327 7.466056890187998 0.09243958553391186
    vertex 139.57329104343268 5.997736890188055 2.592439585533851
    vertex 140.76231604343278 7.466056890187981 2.5924395855339664
  endloop
endfacet
facet normal -0.9876883709981517 0.15643427308303498 -5.7082763796828736e-15
  outer loop
    vertex 141.0578800434328 9.332176890187974 2.592439585533927
    vertex 141.05788004343262 9.33217689018794 0.09243958553391186
    vertex 140.76231604343278 7.466056890187981 2.5924395855339664
  endloop
endfacet
facet normal -8.403000517631684e-15 -1.0 4.35762537165374e-15
  outer loop
    vertex 132.00736804343262 6.95064689018807 2.592439585533865
    vertex 132.03962474343268 6.950646890187951 0.09243958553383855
    vertex 132.0396247434326 6.950646890187971 2.5924395855338904
  endloop
endfacet
facet normal -8.403000517631684e-15 -1.0 4.35762537165374e-15
  outer loop
    vertex 132.03962474343268 6.950646890187951 0.09243958553383855
    vertex 132.00736804343262 6.95064689018807 2.592439585533865
    vertex 132.00736804343265 6.95064689018796 0.09243958553384983
  endloop
endfacet
facet normal -5.348671660488283e-15 -1.0 -1.9255150093700534e-15
  outer loop
    vertex 141.60736804343327 28.45064689018815 27.592439585533874
    vertex 143.60736804343264 28.450646890188025 0.09243958553388931
    vertex 143.60736804343327 28.450646890188132 27.59243958553389
  endloop
endfacet
facet normal -5.348671660488283e-15 -1.0 -1.9255150093700534e-15
  outer loop
    vertex 143.60736804343264 28.450646890188025 0.09243958553388931
    vertex 141.60736804343327 28.45064689018815 27.592439585533874
    vertex 141.60736804343273 28.45064689018803 2.592439585533876
  endloop
endfacet
facet normal -5.348671660488283e-15 -1.0 -1.9255150093700534e-15
  outer loop
    vertex 143.60736804343264 28.450646890188025 0.09243958553388931
    vertex 141.60736804343273 28.45064689018803 2.592439585533876
    vertex 129.10736804343267 28.450646890188096 2.5924395855337887
  endloop
endfacet
facet normal -5.348671660488283e-15 -1.0 -1.9255150093700534e-15
  outer loop
    vertex 143.60736804343264 28.450646890188025 0.09243958553388931
    vertex 129.10736804343267 28.450646890188096 2.5924395855337887
    vertex 129.1073680434327 28.450646890188104 0.09243958553379343
  endloop
endfacet
facet normal 1.0 -1.3539703546373439e-14 -1.804778548830603e-14
  outer loop
    vertex 143.60736804343284 41.45064689018798 0.09243958553375958
    vertex 143.60736804343327 28.450646890188132 27.59243958553389
    vertex 143.60736804343264 28.450646890188025 0.09243958553388931
  endloop
endfacet
facet normal 1.0 -1.3539703546373439e-14 -1.804778548830603e-14
  outer loop
    vertex 143.60736804343327 28.450646890188132 27.59243958553389
    vertex 143.60736804343284 41.45064689018798 0.09243958553375958
    vertex 143.6073680434334 41.450646890188146 27.592439585533846
  endloop
endfacet
facet normal 1.0 -8.403000517631646e-15 5.291730165492141e-15
  outer loop
    vertex 129.10736804343307 16.45064689018813 0.09243958553378778
    vertex 129.10736804343267 28.450646890188096 2.5924395855337887
    vertex 129.1073680434329 16.45064689018809 2.5924395855338087
  endloop
endfacet
facet normal 1.0 -8.403000517631646e-15 5.291730165492141e-15
  outer loop
    vertex 129.10736804343267 28.450646890188096 2.5924395855337887
    vertex 129.10736804343307 16.45064689018813 0.09243958553378778
    vertex 129.1073680434327 28.450646890188104 0.09243958553379343
  endloop
endfacet
facet normal 8.403000517631684e-15 1.0 -4.35762537165374e-15
  outer loop
    vertex 133.49803704343302 16.450646890188064 0.09243958553382726
    vertex 129.1073680434329 16.45064689018809 2.5924395855338087
    vertex 133.49803704343287 16.450646890188054 2.5924395855338256
  endloop
endfacet
facet normal 8.403000517631684e-15 1.0 -4.35762537165374e-15
  outer loop
    vertex 129.1073680434329 16.45064689018809 2.5924395855338087
    vertex 133.49803704343302 16.450646890188064 0.09243958553382726
    vertex 129.10736804343307 16.45064689018813 0.09243958553378778
  endloop
endfacet
facet normal -0.7071067811865561 -0.7071067811865389 5.0793668607765146e-15
  outer loop
    vertex 132.00736804343262 6.95064689018807 2.592439585533865
    vertex 127.60736804343269 11.350646890188115 0.09243958553385546
    vertex 132.00736804343265 6.95064689018796 0.09243958553384983
  endloop
endfacet
facet normal -0.7071067811865561 -0.7071067811865389 5.0793668607765146e-15
  outer loop
    vertex 127.60736804343269 11.350646890188115 0.09243958553385546
    vertex 132.00736804343262 6.95064689018807 2.592439585533865
    vertex 127.60736804343261 11.35064689018813 2.5924395855337776
  endloop
endfacet
facet normal 1.36257702453947e-15 1.0 -2.9411268288783294e-14
  outer loop
    vertex 143.60736804343333 46.45064689018813 27.59243958553372
    vertex 141.60736804343287 46.45064689018803 2.5924395855338593
    vertex 141.6073680434334 46.450646890188146 27.59243958553386
  endloop
endfacet
facet normal 1.36257702453947e-15 1.0 -2.9411268288783294e-14
  outer loop
    vertex 141.60736804343287 46.45064689018803 2.5924395855338593
    vertex 143.60736804343333 46.45064689018813 27.59243958553372
    vertex 143.6073680434328 46.450646890188 0.09243958553368627
  endloop
endfacet
facet normal 1.36257702453947e-15 1.0 -2.9411268288783294e-14
  outer loop
    vertex 141.60736804343287 46.45064689018803 2.5924395855338593
    vertex 143.6073680434328 46.450646890188 0.09243958553368627
    vertex 137.00736804343276 46.45064689018808 2.592439585533724
  endloop
endfacet
facet normal 1.36257702453947e-15 1.0 -2.9411268288783294e-14
  outer loop
    vertex 137.00736804343276 46.45064689018808 2.592439585533724
    vertex 143.6073680434328 46.450646890188 0.09243958553368627
    vertex 137.0073680434328 46.45064689018795 0.09243958553370318
  endloop
endfacet
facet normal 1.0 1.422612028179059e-14 -3.5942329517086417e-28
  outer loop
    vertex 143.6073680434328 46.450646890188 0.09243958553368627
    vertex 143.6073680434334 41.450646890188146 27.592439585533846
    vertex 143.60736804343284 41.45064689018798 0.09243958553375958
  endloop
endfacet
facet normal 1.0 1.422612028179059e-14 -3.5942329517086417e-28
  outer loop
    vertex 143.6073680434334 41.450646890188146 27.592439585533846
    vertex 143.6073680434328 46.450646890188 0.09243958553368627
    vertex 143.60736804343333 46.45064689018813 27.59243958553372
  endloop
endfacet
facet normal -0.7071067811865446 0.7071067811865505 -2.1286740471087604e-14
  outer loop
    vertex 137.00736804343276 46.45064689018808 2.592439585533724
    vertex 127.60736804343279 37.05064689018812 0.09243958553376523
    vertex 127.60736804343274 37.05064689018806 2.5924395855337155
  endloop
endfacet
facet normal -0.7071067811865446 0.7071067811865505 -2.1286740471087604e-14
  outer loop
    vertex 127.60736804343279 37.05064689018812 0.09243958553376523
    vertex 137.00736804343276 46.45064689018808 2.592439585533724
    vertex 137.0073680434328 46.45064689018795 0.09243958553370318
  endloop
endfacet
endsolid Robot
