solid Robot
facet normal 0.6483950985224103 -0.7613040103743798 5.915352439610358e-15
  outer loop
    vertex 163.94715050056624 3.841098780570458 -0.007370634561721356
    vertex 164.68768980056626 4.471808780570351 2.9926293654382166
    vertex 163.9471505005663 3.8410987805704933 2.992629365438214
  endloop
endfacet
facet normal 0.5000002830970922 -0.8660252403381945 6.621892837709328e-15
  outer loop
    vertex 163.5487075005663 0.5312187805705616 -0.007370634561772116
    vertex 165.2807570005662 1.5312187805704198 2.9926293654381517
    vertex 163.54870750056625 0.5312187805705558 2.992629365438234
  endloop
endfacet
facet normal 0.7431445716601611 -0.6691308882513464 6.5803284852254624e-15
  outer loop
    vertex 157.29008250056611 3.3499987805704974 2.9926293654382197
    vertex 155.51254850056614 1.3758487805705408 -0.0073706345618003155
    vertex 157.29008250056611 3.3499987805704365 -0.007370634561822875
  endloop
endfacet
facet normal -0.866024954234751 -0.5000007786420911 -2.4008565775671533e-15
  outer loop
    vertex 162.21622650056605 2.839138780570392 2.992629365438214
    vertex 162.21622650056617 2.839138780570324 -0.007370634561755195
    vertex 163.5487075005663 0.5312187805705616 -0.007370634561772116
  endloop
endfacet
facet normal -0.20791457333119026 0.9781469880322227 -4.2820983038611564e-15
  outer loop
    vertex 154.6067675005662 7.990318780570433 2.9926293654381295
    vertex 152.01210750056612 7.438798780570488 -0.007370634561890554
    vertex 152.0121075005661 7.438798780570516 2.9926293654381633
  endloop
endfacet
facet normal -0.20791457333119026 0.9781469880322227 -4.2820983038611564e-15
  outer loop
    vertex 152.01210750056612 7.438798780570488 -0.007370634561890554
    vertex 154.6067675005662 7.990318780570433 2.9926293654381295
    vertex 154.60676750056618 7.99031878057046 -0.0073706345618849145
  endloop
endfacet
facet normal 0.9135460764792154 -0.4067352531431614 6.14570237349801e-15
  outer loop
    vertex 168.23321950056624 5.73389878057034 2.9926293654382197
    vertex 167.41974550056617 3.9067987805703774 2.9926293654382308
    vertex 167.41974550056617 3.90679878057041 -0.007370634561732636
  endloop
endfacet
facet normal 0.8660259459870715 0.49999906087631624 2.9282140876241718e-15
  outer loop
    vertex 163.9471505005663 3.8410987805704933 2.992629365438214
    vertex 165.28075700056613 1.5312187805703803 -0.007370634561760836
    vertex 163.94715050056624 3.841098780570458 -0.007370634561721356
  endloop
endfacet
facet normal -0.9945218760880106 0.1045286467069383 -5.501139692146982e-15
  outer loop
    vertex 159.88459650056637 13.888098780570482 2.992629365438183
    vertex 160.15756950056655 16.485258780570508 -0.007370634561845435
    vertex 159.88459650056637 13.888098780570443 -0.007370634561794675
  endloop
endfacet
facet normal -0.9945218760880106 0.1045286467069383 -5.501139692146982e-15
  outer loop
    vertex 160.15756950056655 16.485258780570508 -0.007370634561845435
    vertex 159.88459650056637 13.888098780570482 2.992629365438183
    vertex 160.15756950056635 16.485258780570476 2.9926293654381153
  endloop
endfacet
facet normal -0.8660249542347509 -0.5000007786420914 -2.2620786994890084e-15
  outer loop
    vertex 162.21622650056605 2.839138780570392 2.992629365438214
    vertex 163.5487075005663 0.5312187805705616 -0.007370634561772116
    vertex 163.54870750056625 0.5312187805705558 2.992629365438234
  endloop
endfacet
facet normal -0.28269864748690027 -0.9592087753503288 2.8769733702738358e-15
  outer loop
    vertex 158.7116495005661 2.728248780570473 -0.007370634561783395
    vertex 158.711649500566 2.728248780570526 2.9926293654381633
    vertex 157.77859650056604 3.0032387805704825 2.9926293654381633
  endloop
endfacet
facet normal -0.6691299360745966 -0.743145429003507 -9.846623750499233e-16
  outer loop
    vertex 154.02625750056615 2.7141087805705033 -0.007370634561822875
    vertex 155.51254850056614 1.3758487805705408 -0.0073706345618003155
    vertex 154.0262575005661 2.7141087805705046 2.992629365438107
  endloop
endfacet
facet normal -0.9325819860800643 0.3609582236754868 -6.298062665313398e-15
  outer loop
    vertex 154.7407275005663 9.551868780570539 2.9926293654381686
    vertex 154.74072750056615 9.551868780570405 -0.007370634561913114
    vertex 154.6588775005663 9.34039878057053 2.9926293654381237
  endloop
endfacet
facet normal -0.7648632526921689 0.6441926766745766 -6.779531334384956e-15
  outer loop
    vertex 156.5614335005663 12.553398780570484 2.9926293654381464
    vertex 155.56734650056634 11.37309878057053 -0.0073706345618736345
    vertex 155.5673465005662 11.373098780570492 2.992629365438135
  endloop
endfacet
facet normal -0.7648632526921689 0.6441926766745766 -6.779531334384956e-15
  outer loop
    vertex 155.56734650056634 11.37309878057053 -0.0073706345618736345
    vertex 156.5614335005663 12.553398780570484 2.9926293654381464
    vertex 156.56143350056632 12.553398780570543 -0.007370634561867994
  endloop
endfacet
facet normal 0.743144571660161 -0.6691308882513466 6.275017153453546e-15
  outer loop
    vertex 157.29008250056611 3.3499987805704974 2.9926293654382197
    vertex 155.51254850056617 1.3758487805704775 2.9926293654381575
    vertex 155.51254850056614 1.3758487805705408 -0.0073706345618003155
  endloop
endfacet
facet normal -0.5788276490509343 -0.8154499081452941 -1.4128012735275021e-16
  outer loop
    vertex 157.77859650056612 3.0032387805704936 -0.007370634561783395
    vertex 157.77859650056604 3.0032387805704825 2.9926293654381633
    vertex 157.29008250056611 3.3499987805704974 2.9926293654382197
  endloop
endfacet
facet normal -0.9576381301541477 -0.28797432467994066 -3.802426353937197e-15
  outer loop
    vertex 155.01203750056627 6.031778780570491 2.992629365438121
    vertex 155.13095750056604 5.636318780570392 -0.0073706345618003155
    vertex 155.13095750056613 5.636318780570382 2.99262936543816
  endloop
endfacet
facet normal -0.9992559395496379 0.03856899369662874 -5.355723553312745e-15
  outer loop
    vertex 154.6588775005663 9.34039878057053 2.9926293654381237
    vertex 154.60676750056618 7.99031878057046 -0.0073706345618849145
    vertex 154.6067675005662 7.990318780570433 2.9926293654381295
  endloop
endfacet
facet normal 0.20791185865163045 -0.9781475650596 5.392321857005302e-15
  outer loop
    vertex 152.42792750056606 5.4825087805705275 -0.007370634561834155
    vertex 155.01203750056627 6.031778780570491 2.992629365438121
    vertex 152.4279275005661 5.482508780570525 2.992629365438138
  endloop
endfacet
facet normal -0.40673697511320483 -0.9135453098099516 1.5028810202912856e-15
  outer loop
    vertex 167.41974550056617 3.90679878057041 -0.007370634561732636
    vertex 167.41974550056617 3.9067987805703774 2.9926293654382308
    vertex 164.99292760056625 4.987288780570392 2.9926293654382112
  endloop
endfacet
facet normal 0.36607168310892774 -0.9305866551943441 5.182225749117798e-15
  outer loop
    vertex 162.21622650056617 2.839138780570324 -0.007370634561755195
    vertex 162.21622650056605 2.839138780570392 2.992629365438214
    vertex 161.48522350056615 2.5515787805704715 -0.007370634561738276
  endloop
endfacet
facet normal 0.8604612070972237 -0.5095159576311511 6.489642895341722e-15
  outer loop
    vertex 164.99292760056625 4.987288780570392 2.9926293654382112
    vertex 164.68768980056626 4.471808780570351 2.9926293654382166
    vertex 164.68768980056612 4.471808780570318 -0.007370634561766475
  endloop
endfacet
facet normal -0.40673697511320456 -0.9135453098099516 1.3363475665975117e-15
  outer loop
    vertex 167.41974550056617 3.90679878057041 -0.007370634561732636
    vertex 164.99292760056625 4.987288780570392 2.9926293654382112
    vertex 164.99292760056613 4.9872887805703545 -0.007370634561721356
  endloop
endfacet
facet normal 0.36607168310892774 -0.9305866551943441 5.182225749117798e-15
  outer loop
    vertex 161.48522350056615 2.5515787805704715 -0.007370634561738276
    vertex 162.21622650056605 2.839138780570392 2.992629365438214
    vertex 161.485223500566 2.551578780570449 2.992629365438228
  endloop
endfacet
facet normal 0.9945218977469567 -0.10452844063599122 5.6607340631894625e-15
  outer loop
    vertex 160.70045850056601 2.51694878057045 2.992629365438239
    vertex 160.4218945005662 -0.13341121942946838 2.9926293654381997
    vertex 160.42189450056628 -0.13341121942958814 -0.007370634561822875
  endloop
endfacet
facet normal -0.9576381301541477 -0.28797432467994066 -3.802426353937197e-15
  outer loop
    vertex 155.01203750056612 6.031778780570529 -0.007370634561879274
    vertex 155.13095750056604 5.636318780570392 -0.0073706345618003155
    vertex 155.01203750056627 6.031778780570491 2.992629365438121
  endloop
endfacet
facet normal -0.9781478321700156 -0.20791060199301792 -4.083926256454899e-15
  outer loop
    vertex 152.0121075005661 7.438798780570516 2.9926293654381633
    vertex 152.01210750056612 7.438798780570488 -0.007370634561890554
    vertex 152.42792750056606 5.4825087805705275 -0.007370634561834155
  endloop
endfacet
facet normal -0.9781478321700156 -0.20791060199301786 -4.236581922340858e-15
  outer loop
    vertex 152.0121075005661 7.438798780570516 2.9926293654381633
    vertex 152.42792750056606 5.4825087805705275 -0.007370634561834155
    vertex 152.4279275005661 5.482508780570525 2.992629365438138
  endloop
endfacet
facet normal -0.10452992035313885 -0.9945217422213385 3.57545153188155e-15
  outer loop
    vertex 160.42189450056628 -0.13341121942958814 -0.007370634561822875
    vertex 160.4218945005662 -0.13341121942946838 2.9926293654381997
    vertex 158.4328495005662 0.0756487805704189 2.992629365438186
  endloop
endfacet
facet normal -0.5143305999186787 0.8575919973899547 -5.8925235777959265e-15
  outer loop
    vertex 156.59579850056627 12.574008780570459 -0.0073706345618849145
    vertex 156.56143350056632 12.553398780570543 -0.007370634561867994
    vertex 156.5614335005663 12.553398780570484 2.9926293654381464
  endloop
endfacet
facet normal -0.9945218756648134 0.10452865073338292 -5.653795361720899e-15
  outer loop
    vertex 158.711649500566 2.728248780570526 2.9926293654381633
    vertex 158.43284950056633 0.07564878057037669 -0.0073706345617890355
    vertex 158.4328495005662 0.0756487805704189 2.992629365438186
  endloop
endfacet
facet normal -0.5143305999186791 0.8575919973899546 -5.83701242656467e-15
  outer loop
    vertex 156.59579850056627 12.574008780570459 -0.0073706345618849145
    vertex 156.5614335005663 12.553398780570484 2.9926293654381464
    vertex 156.59579850056625 12.57400878057042 2.9926293654381295
  endloop
endfacet
facet normal 0.04408495819304633 -0.9990277856301683 2.5248668968301692e-15
  outer loop
    vertex 160.70045850056616 2.5169487805704485 -0.007370634561749556
    vertex 161.48522350056615 2.5515787805704715 -0.007370634561738276
    vertex 161.485223500566 2.551578780570449 2.992629365438228
  endloop
endfacet
facet normal 0.8660259459870715 0.49999906087631624 2.844947360777285e-15
  outer loop
    vertex 163.9471505005663 3.8410987805704933 2.992629365438214
    vertex 165.2807570005662 1.5312187805704198 2.9926293654381517
    vertex 165.28075700056613 1.5312187805703803 -0.007370634561760836
  endloop
endfacet
facet normal -0.7431451332104946 0.6691302645864678 -6.857883670145889e-15
  outer loop
    vertex 155.80825450056625 4.693218780570493 -0.007370634561856715
    vertex 154.02625750056615 2.7141087805705033 -0.007370634561822875
    vertex 155.80825450056633 4.693218780570482 2.9926293654381886
  endloop
endfacet
facet normal 0.9945218977469567 -0.10452844063599112 5.626039593669926e-15
  outer loop
    vertex 160.70045850056616 2.5169487805704485 -0.007370634561749556
    vertex 160.70045850056601 2.51694878057045 2.992629365438239
    vertex 160.42189450056628 -0.13341121942958814 -0.007370634561822875
  endloop
endfacet
facet normal -0.8122422998825404 -0.5833201919028018 -1.4918742260230378e-15
  outer loop
    vertex 155.13095750056604 5.636318780570392 -0.0073706345618003155
    vertex 155.80825450056625 4.693218780570493 -0.007370634561856715
    vertex 155.13095750056613 5.636318780570382 2.99262936543816
  endloop
endfacet
facet normal -0.20791202282754054 0.9781475301628892 -4.781699161498384e-15
  outer loop
    vertex 159.88459650056637 13.888098780570443 -0.007370634561794675
    vertex 158.33649350056618 13.559038780570486 2.992629365438135
    vertex 159.88459650056637 13.888098780570482 2.992629365438183
  endloop
endfacet
facet normal -0.20791202282754054 0.9781475301628892 -4.781699161498384e-15
  outer loop
    vertex 158.33649350056618 13.559038780570486 2.992629365438135
    vertex 159.88459650056637 13.888098780570443 -0.007370634561794675
    vertex 158.3364935005662 13.55903878057049 -0.007370634561839794
  endloop
endfacet
facet normal -0.10452992035313885 -0.9945217422213385 3.57545153188155e-15
  outer loop
    vertex 160.42189450056628 -0.13341121942958814 -0.007370634561822875
    vertex 158.4328495005662 0.0756487805704189 2.992629365438186
    vertex 158.43284950056633 0.07564878057037669 -0.0073706345617890355
  endloop
endfacet
facet normal -0.9945218756648134 0.10452865073338306 -5.612161998297456e-15
  outer loop
    vertex 158.711649500566 2.728248780570526 2.9926293654381633
    vertex 158.7116495005661 2.728248780570473 -0.007370634561783395
    vertex 158.43284950056633 0.07564878057037669 -0.0073706345617890355
  endloop
endfacet
facet normal 0.40673515072465777 0.9135461220786775 -6.702144958069573e-16
  outer loop
    vertex 167.2403995005661 6.175928780570515 -0.007370634561817235
    vertex 167.2403995005662 6.175928780570473 2.992629365438197
    vertex 168.2332195005662 5.733898780570366 -0.007370634561777755
  endloop
endfacet
facet normal 0.40673515072465777 0.9135461220786775 -6.702144958069573e-16
  outer loop
    vertex 168.2332195005662 5.733898780570366 -0.007370634561777755
    vertex 167.2403995005662 6.175928780570473 2.992629365438197
    vertex 168.23321950056624 5.73389878057034 2.9926293654382197
  endloop
endfacet
facet normal 0.5000002830970927 -0.8660252403381942 6.011270174165491e-15
  outer loop
    vertex 163.5487075005663 0.5312187805705616 -0.007370634561772116
    vertex 165.28075700056613 1.5312187805703803 -0.007370634561760836
    vertex 165.2807570005662 1.5312187805704198 2.9926293654381517
  endloop
endfacet
facet normal -0.5788276490509343 -0.8154499081452941 -1.4128012735275021e-16
  outer loop
    vertex 157.29008250056611 3.3499987805704365 -0.007370634561822875
    vertex 157.77859650056612 3.0032387805704936 -0.007370634561783395
    vertex 157.29008250056611 3.3499987805704974 2.9926293654382197
  endloop
endfacet
facet normal -0.6691299360745963 -0.7431454290035073 -1.1234402531280673e-15
  outer loop
    vertex 155.51254850056614 1.3758487805705408 -0.0073706345618003155
    vertex 155.51254850056617 1.3758487805704775 2.9926293654381575
    vertex 154.0262575005661 2.7141087805705046 2.992629365438107
  endloop
endfacet
facet normal -0.28269864748690027 -0.9592087753503288 2.8769733702738358e-15
  outer loop
    vertex 158.7116495005661 2.728248780570473 -0.007370634561783395
    vertex 157.77859650056604 3.0032387805704825 2.9926293654381633
    vertex 157.77859650056612 3.0032387805704936 -0.007370634561783395
  endloop
endfacet
facet normal 0.2079118586516304 -0.9781475650596001 4.8372103446927256e-15
  outer loop
    vertex 155.01203750056612 6.031778780570529 -0.007370634561879274
    vertex 155.01203750056627 6.031778780570491 2.992629365438121
    vertex 152.42792750056606 5.4825087805705275 -0.007370634561834155
  endloop
endfacet
facet normal 0.04408495819304633 -0.9990277856301683 2.5248668968301692e-15
  outer loop
    vertex 160.70045850056616 2.5169487805704485 -0.007370634561749556
    vertex 161.485223500566 2.551578780570449 2.992629365438228
    vertex 160.70045850056601 2.51694878057045 2.992629365438239
  endloop
endfacet
facet normal -0.9992559395496379 0.03856899369662874 -5.3435804889809075e-15
  outer loop
    vertex 154.6588775005663 9.34039878057053 2.9926293654381237
    vertex 154.65887750056615 9.340398780570515 -0.0073706345618736345
    vertex 154.60676750056618 7.99031878057046 -0.0073706345618849145
  endloop
endfacet
facet normal -0.7431451332104941 0.6691302645864684 -7.024417123839662e-15
  outer loop
    vertex 155.80825450056633 4.693218780570482 2.9926293654381886
    vertex 154.02625750056615 2.7141087805705033 -0.007370634561822875
    vertex 154.0262575005661 2.7141087805705046 2.992629365438107
  endloop
endfacet
facet normal -0.9325819860800643 0.3609582236754868 -6.298062665313398e-15
  outer loop
    vertex 154.74072750056615 9.551868780570405 -0.007370634561913114
    vertex 154.65887750056615 9.340398780570515 -0.0073706345618736345
    vertex 154.6588775005663 9.34039878057053 2.9926293654381237
  endloop
endfacet
facet normal -0.8122422998825402 -0.5833201919028018 -1.7971855577949554e-15
  outer loop
    vertex 155.13095750056613 5.636318780570382 2.99262936543816
    vertex 155.80825450056625 4.693218780570493 -0.007370634561856715
    vertex 155.80825450056633 4.693218780570482 2.9926293654381886
  endloop
endfacet
facet normal 0.8604612070972237 -0.5095159576311511 6.489642895341722e-15
  outer loop
    vertex 164.99292760056625 4.987288780570392 2.9926293654382112
    vertex 164.68768980056612 4.471808780570318 -0.007370634561766475
    vertex 164.99292760056613 4.9872887805703545 -0.007370634561721356
  endloop
endfacet
facet normal 0.9135460764792154 -0.4067352531431614 6.14570237349801e-15
  outer loop
    vertex 168.2332195005662 5.733898780570366 -0.007370634561777755
    vertex 168.23321950056624 5.73389878057034 2.9926293654382197
    vertex 167.41974550056617 3.90679878057041 -0.007370634561732636
  endloop
endfacet
facet normal 0.6483950985224103 -0.7613040103743798 5.915352439610358e-15
  outer loop
    vertex 164.68768980056612 4.471808780570318 -0.007370634561766475
    vertex 164.68768980056626 4.471808780570351 2.9926293654382166
    vertex 163.94715050056624 3.841098780570458 -0.007370634561721356
  endloop
endfacet
facet normal 0.8943769414016958 -0.4473140805842666 6.626959110891432e-15
  outer loop
    vertex 159.06628450056633 9.758068780570515 2.9926293654381717
    vertex 158.28995650056626 8.205848780570559 2.992629365438186
    vertex 158.28995650056618 8.205848780570504 -0.007370634561822875
  endloop
endfacet
facet normal 0.12103938087294736 0.9926477060256039 -3.4072015847276504e-15
  outer loop
    vertex 161.8754485005663 13.696228780570381 -0.007370634561879274
    vertex 161.87544850056634 13.6962287805705 2.992629365438107
    vertex 161.9152235005663 13.69137878057044 -0.007370634561845435
  endloop
endfacet
facet normal -0.6117242572749232 0.7910710670106975 -6.497728611036628e-15
  outer loop
    vertex 160.70555450056602 6.219628780570227 -0.007370634561805955
    vertex 160.7055545005661 6.219628780570336 2.9926293654381997
    vertex 162.07848750056618 7.2812987805704505 2.9926293654381744
  endloop
endfacet
facet normal -0.4067362665949259 -0.9135456252625928 1.280836704300052e-15
  outer loop
    vertex 154.74072750056615 9.551868780570405 -0.007370634561913114
    vertex 152.3462475005663 10.61795878057052 2.9926293654381237
    vertex 152.34624750056625 10.617958780570524 -0.007370634561907474
  endloop
endfacet
facet normal 0.9073593606369142 0.42035579056862094 3.30647339816903e-15
  outer loop
    vertex 158.28995650056626 8.205848780570559 2.992629365438186
    vertex 159.01950150056607 6.631088780570459 2.9926293654381886
    vertex 159.019501500566 6.631088780570392 -0.0073706345617890355
  endloop
endfacet
facet normal -0.9998880980399296 0.01495965902326122 -5.268179468991502e-15
  outer loop
    vertex 162.10445050056632 9.016638780570426 2.9926293654381775
    vertex 162.07848750056615 7.281298780570325 -0.007370634561743916
    vertex 162.07848750056618 7.2812987805704505 2.9926293654381744
  endloop
endfacet
facet normal -0.6117242572749236 0.7910710670106974 -6.386706308574113e-15
  outer loop
    vertex 160.70555450056602 6.219628780570227 -0.007370634561805955
    vertex 162.07848750056618 7.2812987805704505 2.9926293654381744
    vertex 162.07848750056615 7.281298780570325 -0.007370634561743916
  endloop
endfacet
facet normal -0.4067362665949259 -0.9135456252625928 1.280836704300052e-15
  outer loop
    vertex 154.74072750056615 9.551868780570405 -0.007370634561913114
    vertex 154.7407275005663 9.551868780570539 2.9926293654381686
    vertex 152.3462475005663 10.61795878057052 2.9926293654381237
  endloop
endfacet
facet normal 0.2079129479975081 -0.9781473335111566 4.504143225222087e-15
  outer loop
    vertex 159.0662845005662 9.758068780570508 -0.007370634561828515
    vertex 160.7638925005663 10.118908780570422 2.992629365438183
    vertex 159.06628450056633 9.758068780570515 2.9926293654381717
  endloop
endfacet
facet normal -0.6351168893677415 -0.7724160386992519 -5.692743699471659e-16
  outer loop
    vertex 162.1044505005662 9.016638780570307 -0.007370634561794675
    vertex 162.10445050056632 9.016638780570426 2.9926293654381775
    vertex 160.7638925005663 10.118908780570422 2.992629365438183
  endloop
endfacet
facet normal 0.12103938087294736 0.9926477060256039 -3.4072015847276504e-15
  outer loop
    vertex 161.9152235005663 13.69137878057044 -0.007370634561845435
    vertex 161.87544850056634 13.6962287805705 2.992629365438107
    vertex 161.91522350056636 13.691378780570492 2.992629365438132
  endloop
endfacet
facet normal 0.8660251333120464 0.5000004684716326 2.3453457104315623e-15
  outer loop
    vertex 158.3364935005662 13.55903878057049 -0.007370634561839794
    vertex 157.0307565005662 15.820638780570464 2.9926293654380673
    vertex 158.33649350056618 13.559038780570486 2.992629365438135
  endloop
endfacet
facet normal 0.8660251333120464 0.5000004684716326 2.3453457104315623e-15
  outer loop
    vertex 157.0307565005662 15.820638780570464 2.9926293654380673
    vertex 158.3364935005662 13.55903878057049 -0.007370634561839794
    vertex 157.03075650056647 15.820638780570473 -0.007370634561856715
  endloop
endfacet
facet normal 0.40673806984907207 0.9135448224008779 -1.6694140275505184e-15
  outer loop
    vertex 155.5673465005662 11.373098780570492 2.992629365438135
    vertex 153.15971750056636 12.44504878057051 -0.007370634561851074
    vertex 153.1597175005663 12.445048780570485 2.99262936543816
  endloop
endfacet
facet normal 0.40673806984907207 0.9135448224008779 -1.6694140275505184e-15
  outer loop
    vertex 153.15971750056636 12.44504878057051 -0.007370634561851074
    vertex 155.5673465005662 11.373098780570492 2.992629365438135
    vertex 155.56734650056634 11.37309878057053 -0.0073706345618736345
  endloop
endfacet
facet normal 0.8943769414016961 -0.4473140805842662 6.5992035352758045e-15
  outer loop
    vertex 159.06628450056633 9.758068780570515 2.9926293654381717
    vertex 158.28995650056618 8.205848780570504 -0.007370634561822875
    vertex 159.0662845005662 9.758068780570508 -0.007370634561828515
  endloop
endfacet
facet normal 0.2079129479975081 -0.9781473335111566 4.504143225222087e-15
  outer loop
    vertex 160.7638925005662 10.118908780570484 -0.007370634561828515
    vertex 160.7638925005663 10.118908780570422 2.992629365438183
    vertex 159.0662845005662 9.758068780570508 -0.007370634561828515
  endloop
endfacet
facet normal 0.9945218863061639 -0.10452854948783111 5.688489738506192e-15
  outer loop
    vertex 162.1466145005664 16.27619878057045 2.9926293654380953
    vertex 161.87544850056634 13.6962287805705 2.992629365438107
    vertex 161.8754485005663 13.696228780570381 -0.007370634561879274
  endloop
endfacet
facet normal 0.9073593606369142 0.42035579056862094 3.30647339816903e-15
  outer loop
    vertex 158.28995650056626 8.205848780570559 2.992629365438186
    vertex 159.019501500566 6.631088780570392 -0.0073706345617890355
    vertex 158.28995650056618 8.205848780570504 -0.007370634561822875
  endloop
endfacet
facet normal 0.2370799349794412 0.971490146337133 -2.388621934388415e-15
  outer loop
    vertex 160.70555450056602 6.219628780570227 -0.007370634561805955
    vertex 159.01950150056607 6.631088780570459 2.9926293654381886
    vertex 160.7055545005661 6.219628780570336 2.9926293654381997
  endloop
endfacet
facet normal 0.2370799349794412 0.971490146337133 -2.388621934388415e-15
  outer loop
    vertex 160.70555450056602 6.219628780570227 -0.007370634561805955
    vertex 159.019501500566 6.631088780570392 -0.0073706345617890355
    vertex 159.01950150056607 6.631088780570459 2.9926293654381886
  endloop
endfacet
facet normal -0.9135459924540633 0.4067354418674636 -6.1734581219726424e-15
  outer loop
    vertex 153.1597175005663 12.445048780570485 2.99262936543816
    vertex 152.34624750056625 10.617958780570524 -0.007370634561907474
    vertex 152.3462475005663 10.61795878057052 2.9926293654381237
  endloop
endfacet
facet normal -0.9135459924540633 0.4067354418674636 -6.1734581219726424e-15
  outer loop
    vertex 152.34624750056625 10.617958780570524 -0.007370634561907474
    vertex 153.1597175005663 12.445048780570485 2.99262936543816
    vertex 153.15971750056636 12.44504878057051 -0.007370634561851074
  endloop
endfacet
facet normal 0.9945218863061639 -0.10452854948783111 5.688489738506192e-15
  outer loop
    vertex 162.1466145005664 16.27619878057045 2.9926293654380953
    vertex 161.8754485005663 13.696228780570381 -0.007370634561879274
    vertex 162.1466145005666 16.276198780570436 -0.007370634561851074
  endloop
endfacet
facet normal -0.5000003913503887 0.8660251778380684 -5.7337143607632125e-15
  outer loop
    vertex 157.0307565005662 15.820638780570464 2.9926293654380673
    vertex 155.2987075005663 14.820638780570501 -0.007370634561907474
    vertex 155.29870750056634 14.820638780570475 2.992629365438101
  endloop
endfacet
facet normal -0.5000003913503887 0.8660251778380684 -5.7337143607632125e-15
  outer loop
    vertex 155.2987075005663 14.820638780570501 -0.007370634561907474
    vertex 157.0307565005662 15.820638780570464 2.9926293654380673
    vertex 157.03075650056647 15.820638780570473 -0.007370634561856715
  endloop
endfacet
facet normal -0.8660256433548136 -0.4999995850517093 -2.317590943970274e-15
  outer loop
    vertex 155.29870750056634 14.820638780570475 2.992629365438101
    vertex 156.59579850056627 12.574008780570459 -0.0073706345618849145
    vertex 156.59579850056625 12.57400878057042 2.9926293654381295
  endloop
endfacet
facet normal -0.8660256433548136 -0.4999995850517093 -2.317590943970274e-15
  outer loop
    vertex 156.59579850056627 12.574008780570459 -0.0073706345618849145
    vertex 155.29870750056634 14.820638780570475 2.992629365438101
    vertex 155.2987075005663 14.820638780570501 -0.007370634561907474
  endloop
endfacet
facet normal 0.10452992035314458 0.9945217422213379 -4.075051892962869e-15
  outer loop
    vertex 162.1466145005664 16.27619878057045 2.9926293654380953
    vertex 160.15756950056655 16.485258780570508 -0.007370634561845435
    vertex 160.15756950056635 16.485258780570476 2.9926293654381153
  endloop
endfacet
facet normal 0.10452992035314458 0.9945217422213379 -4.075051892962869e-15
  outer loop
    vertex 160.15756950056655 16.485258780570508 -0.007370634561845435
    vertex 162.1466145005664 16.27619878057045 2.9926293654380953
    vertex 162.1466145005666 16.276198780570436 -0.007370634561851074
  endloop
endfacet
facet normal -0.9998880980399296 0.014959659023261221 -5.26904683072949e-15
  outer loop
    vertex 162.10445050056632 9.016638780570426 2.9926293654381775
    vertex 162.1044505005662 9.016638780570307 -0.007370634561794675
    vertex 162.07848750056615 7.281298780570325 -0.007370634561743916
  endloop
endfacet
facet normal -0.6351168893677418 -0.7724160386992517 -6.967400886584568e-17
  outer loop
    vertex 160.7638925005662 10.118908780570484 -0.007370634561828515
    vertex 162.1044505005662 9.016638780570307 -0.007370634561794675
    vertex 160.7638925005663 10.118908780570422 2.992629365438183
  endloop
endfacet
facet normal 1.0 2.0425015469699285e-15 -1.1279865930191778e-14
  outer loop
    vertex 169.2897325005663 32.77592878057036 -0.007370634561901834
    vertex 169.28973250056634 14.29523967350551 2.9926293654381633
    vertex 169.2897325005663 14.295239673505495 -0.007370634561811595
  endloop
endfacet
facet normal 1.0 2.0425015469699285e-15 -1.1279865930191778e-14
  outer loop
    vertex 169.28973250056634 14.29523967350551 2.9926293654381633
    vertex 169.2897325005663 32.77592878057036 -0.007370634561901834
    vertex 169.2897325005663 32.77592878057037 2.9926293654380447
  endloop
endfacet
facet normal 1.0 -8.333611578592584e-15 -4.053701818662694e-15
  outer loop
    vertex 153.7897325005665 27.675928780570604 2.9926293654379346
    vertex 153.7897325005667 45.67592878057061 27.992629365437917
    vertex 153.78973250056657 27.675928780570604 27.992629365437935
  endloop
endfacet
facet normal 1.0 -8.333611578592584e-15 -4.053701818662694e-15
  outer loop
    vertex 153.7897325005667 45.67592878057061 27.992629365437917
    vertex 153.7897325005665 27.675928780570604 2.9926293654379346
    vertex 153.78973250056663 45.67592878057061 2.9926293654379177
  endloop
endfacet
facet normal 4.053701818662693e-15 -4.471731626985322e-18 1.0
  outer loop
    vertex 151.78973250056663 45.67592878057057 27.992629365437946
    vertex 153.78973250056657 27.675928780570604 27.992629365437935
    vertex 153.7897325005667 45.67592878057061 27.992629365437917
  endloop
endfacet
facet normal 4.053701818662693e-15 -4.471731626985322e-18 1.0
  outer loop
    vertex 153.78973250056657 27.675928780570604 27.992629365437935
    vertex 151.78973250056663 45.67592878057057 27.992629365437946
    vertex 151.78973250056657 27.675928780570622 27.992629365437924
  endloop
endfacet
facet normal 1.0 -2.0464746893596973e-14 -2.2559731860383385e-14
  outer loop
    vertex 169.2897325005663 14.295239673505495 -0.007370634561811595
    vertex 169.2897325005663 10.575928780570303 2.9926293654381717
    vertex 169.28973250056623 10.575928780570267 -0.007370634561766475
  endloop
endfacet
facet normal 1.0 -2.0464746893596973e-14 -2.2559731860383385e-14
  outer loop
    vertex 169.2897325005663 10.575928780570303 2.9926293654381717
    vertex 169.2897325005663 14.295239673505495 -0.007370634561811595
    vertex 169.28973250056634 14.29523967350551 2.9926293654381633
  endloop
endfacet
facet normal 6.1529109039597e-15 -4.702925143061844e-15 -1.0
  outer loop
    vertex 167.41974550056617 3.90679878057041 -0.007370634561732636
    vertex 167.2403995005661 6.175928780570515 -0.007370634561817235
    vertex 168.2332195005662 5.733898780570366 -0.007370634561777755
  endloop
endfacet
facet normal 6.1529109039597e-15 -4.702925143061844e-15 -1.0
  outer loop
    vertex 167.2403995005661 6.175928780570515 -0.007370634561817235
    vertex 167.41974550056617 3.90679878057041 -0.007370634561732636
    vertex 164.99292760056613 4.9872887805703545 -0.007370634561721356
  endloop
endfacet
facet normal 6.1529109039597e-15 -4.702925143061844e-15 -1.0
  outer loop
    vertex 167.2403995005661 6.175928780570515 -0.007370634561817235
    vertex 164.99292760056613 4.9872887805703545 -0.007370634561721356
    vertex 165.76664497095362 6.832083687526997 -0.007370634561749556
  endloop
endfacet
facet normal 6.1529109039597e-15 -4.702925143061844e-15 -1.0
  outer loop
    vertex 163.5487075005663 0.5312187805705616 -0.007370634561772116
    vertex 163.94715050056624 3.841098780570458 -0.007370634561721356
    vertex 165.28075700056613 1.5312187805703803 -0.007370634561760836
  endloop
endfacet
facet normal 6.1529109039597e-15 -4.702925143061844e-15 -1.0
  outer loop
    vertex 162.21622650056617 2.839138780570324 -0.007370634561755195
    vertex 162.78973250056623 13.26683878057044 -0.007370634561828515
    vertex 163.5487075005663 0.5312187805705616 -0.007370634561772116
  endloop
endfacet
facet normal 6.1529109039597e-15 -4.702925143061844e-15 -1.0
  outer loop
    vertex 162.78973250056623 13.26683878057044 -0.007370634561828515
    vertex 162.21622650056617 2.839138780570324 -0.007370634561755195
    vertex 162.1044505005662 9.016638780570307 -0.007370634561794675
  endloop
endfacet
facet normal 6.1529109039597e-15 -4.702925143061844e-15 -1.0
  outer loop
    vertex 162.78973250056623 13.26683878057044 -0.007370634561828515
    vertex 162.1044505005662 9.016638780570307 -0.007370634561794675
    vertex 161.9152235005663 13.69137878057044 -0.007370634561845435
  endloop
endfacet
facet normal 6.1529109039597e-15 -4.702925143061844e-15 -1.0
  outer loop
    vertex 161.9152235005663 13.69137878057044 -0.007370634561845435
    vertex 162.1044505005662 9.016638780570307 -0.007370634561794675
    vertex 160.7638925005662 10.118908780570484 -0.007370634561828515
  endloop
endfacet
facet normal 6.1529109039597e-15 -4.702925143061844e-15 -1.0
  outer loop
    vertex 161.9152235005663 13.69137878057044 -0.007370634561845435
    vertex 160.7638925005662 10.118908780570484 -0.007370634561828515
    vertex 161.8754485005663 13.696228780570381 -0.007370634561879274
  endloop
endfacet
facet normal 6.1529109039597e-15 -4.702925143061844e-15 -1.0
  outer loop
    vertex 169.28973250056623 10.575928780570267 -0.007370634561766475
    vertex 169.2897325005663 32.77592878057036 -0.007370634561901834
    vertex 169.2897325005663 14.295239673505495 -0.007370634561811595
  endloop
endfacet
facet normal 6.1529109039597e-15 -4.702925143061844e-15 -1.0
  outer loop
    vertex 169.2897325005663 32.77592878057036 -0.007370634561901834
    vertex 169.28973250056623 10.575928780570267 -0.007370634561766475
    vertex 165.76664497095362 6.832083687526997 -0.007370634561749556
  endloop
endfacet
facet normal 6.1529109039597e-15 -4.702925143061844e-15 -1.0
  outer loop
    vertex 169.2897325005663 32.77592878057036 -0.007370634561901834
    vertex 165.76664497095362 6.832083687526997 -0.007370634561749556
    vertex 169.2897325005663 36.27592878057045 -0.007370634561913114
  endloop
endfacet
facet normal 6.1529109039597e-15 -4.702925143061844e-15 -1.0
  outer loop
    vertex 169.2897325005663 36.27592878057045 -0.007370634561913114
    vertex 165.76664497095362 6.832083687526997 -0.007370634561749556
    vertex 162.7897325005662 27.675928780570406 -0.007370634561941314
  endloop
endfacet
facet normal 6.1529109039597e-15 -4.702925143061844e-15 -1.0
  outer loop
    vertex 169.2897325005663 36.27592878057045 -0.007370634561913114
    vertex 162.7897325005662 27.675928780570406 -0.007370634561941314
    vertex 159.8897325005666 45.675928780570494 -0.0073706345619695135
  endloop
endfacet
facet normal 6.1529109039597e-15 -4.702925143061844e-15 -1.0
  outer loop
    vertex 162.7897325005662 27.675928780570406 -0.007370634561941314
    vertex 165.76664497095362 6.832083687526997 -0.007370634561749556
    vertex 164.99292760056613 4.9872887805703545 -0.007370634561721356
  endloop
endfacet
facet normal 6.1529109039597e-15 -4.702925143061844e-15 -1.0
  outer loop
    vertex 162.7897325005662 27.675928780570406 -0.007370634561941314
    vertex 164.99292760056613 4.9872887805703545 -0.007370634561721356
    vertex 164.68768980056612 4.471808780570318 -0.007370634561766475
  endloop
endfacet
facet normal 6.1529109039597e-15 -4.702925143061844e-15 -1.0
  outer loop
    vertex 162.7897325005662 27.675928780570406 -0.007370634561941314
    vertex 164.68768980056612 4.471808780570318 -0.007370634561766475
    vertex 163.94715050056624 3.841098780570458 -0.007370634561721356
  endloop
endfacet
facet normal 6.1529109039597e-15 -4.702925143061844e-15 -1.0
  outer loop
    vertex 162.7897325005662 27.675928780570406 -0.007370634561941314
    vertex 163.94715050056624 3.841098780570458 -0.007370634561721356
    vertex 163.5487075005663 0.5312187805705616 -0.007370634561772116
  endloop
endfacet
facet normal 6.1529109039597e-15 -4.702925143061844e-15 -1.0
  outer loop
    vertex 162.7897325005662 27.675928780570406 -0.007370634561941314
    vertex 163.5487075005663 0.5312187805705616 -0.007370634561772116
    vertex 162.78973250056623 13.26683878057044 -0.007370634561828515
  endloop
endfacet
facet normal 6.1529109039597e-15 -4.702925143061844e-15 -1.0
  outer loop
    vertex 159.8897325005666 45.675928780570494 -0.0073706345619695135
    vertex 162.7897325005662 27.675928780570406 -0.007370634561941314
    vertex 151.78973250056623 27.6759287805705 -0.0073706345619695135
  endloop
endfacet
facet normal 6.1529109039597e-15 -4.702925143061844e-15 -1.0
  outer loop
    vertex 159.8897325005666 45.675928780570494 -0.0073706345619695135
    vertex 151.78973250056623 27.6759287805705 -0.0073706345619695135
    vertex 151.78973250056652 45.67592878057055 -0.007370634562014633
  endloop
endfacet
facet normal 6.1529109039597e-15 -4.702925143061844e-15 -1.0
  outer loop
    vertex 162.21622650056617 2.839138780570324 -0.007370634561755195
    vertex 162.07848750056615 7.281298780570325 -0.007370634561743916
    vertex 162.1044505005662 9.016638780570307 -0.007370634561794675
  endloop
endfacet
facet normal 6.1529109039597e-15 -4.702925143061844e-15 -1.0
  outer loop
    vertex 162.07848750056615 7.281298780570325 -0.007370634561743916
    vertex 162.21622650056617 2.839138780570324 -0.007370634561755195
    vertex 161.48522350056615 2.5515787805704715 -0.007370634561738276
  endloop
endfacet
facet normal 6.1529109039597e-15 -4.702925143061844e-15 -1.0
  outer loop
    vertex 162.07848750056615 7.281298780570325 -0.007370634561743916
    vertex 161.48522350056615 2.5515787805704715 -0.007370634561738276
    vertex 160.70555450056602 6.219628780570227 -0.007370634561805955
  endloop
endfacet
facet normal 6.1529109039597e-15 -4.702925143061844e-15 -1.0
  outer loop
    vertex 160.70555450056602 6.219628780570227 -0.007370634561805955
    vertex 161.48522350056615 2.5515787805704715 -0.007370634561738276
    vertex 160.70045850056616 2.5169487805704485 -0.007370634561749556
  endloop
endfacet
facet normal 6.1529109039597e-15 -4.702925143061844e-15 -1.0
  outer loop
    vertex 160.70555450056602 6.219628780570227 -0.007370634561805955
    vertex 160.70045850056616 2.5169487805704485 -0.007370634561749556
    vertex 159.019501500566 6.631088780570392 -0.0073706345617890355
  endloop
endfacet
facet normal 6.1529109039597e-15 -4.702925143061844e-15 -1.0
  outer loop
    vertex 159.019501500566 6.631088780570392 -0.0073706345617890355
    vertex 160.70045850056616 2.5169487805704485 -0.007370634561749556
    vertex 160.42189450056628 -0.13341121942958814 -0.007370634561822875
  endloop
endfacet
facet normal 6.1529109039597e-15 -4.702925143061844e-15 -1.0
  outer loop
    vertex 159.019501500566 6.631088780570392 -0.0073706345617890355
    vertex 160.42189450056628 -0.13341121942958814 -0.007370634561822875
    vertex 158.7116495005661 2.728248780570473 -0.007370634561783395
  endloop
endfacet
facet normal 6.1529109039597e-15 -4.702925143061844e-15 -1.0
  outer loop
    vertex 158.7116495005661 2.728248780570473 -0.007370634561783395
    vertex 160.42189450056628 -0.13341121942958814 -0.007370634561822875
    vertex 158.43284950056633 0.07564878057037669 -0.0073706345617890355
  endloop
endfacet
facet normal 6.1529109039597e-15 -4.702925143061844e-15 -1.0
  outer loop
    vertex 161.8754485005663 13.696228780570381 -0.007370634561879274
    vertex 160.15756950056655 16.485258780570508 -0.007370634561845435
    vertex 162.1466145005666 16.276198780570436 -0.007370634561851074
  endloop
endfacet
facet normal 6.1529109039597e-15 -4.702925143061844e-15 -1.0
  outer loop
    vertex 160.15756950056655 16.485258780570508 -0.007370634561845435
    vertex 161.8754485005663 13.696228780570381 -0.007370634561879274
    vertex 160.7638925005662 10.118908780570484 -0.007370634561828515
  endloop
endfacet
facet normal 6.1529109039597e-15 -4.702925143061844e-15 -1.0
  outer loop
    vertex 160.15756950056655 16.485258780570508 -0.007370634561845435
    vertex 160.7638925005662 10.118908780570484 -0.007370634561828515
    vertex 159.88459650056637 13.888098780570443 -0.007370634561794675
  endloop
endfacet
facet normal 6.1529109039597e-15 -4.702925143061844e-15 -1.0
  outer loop
    vertex 159.88459650056637 13.888098780570443 -0.007370634561794675
    vertex 160.7638925005662 10.118908780570484 -0.007370634561828515
    vertex 159.0662845005662 9.758068780570508 -0.007370634561828515
  endloop
endfacet
facet normal 6.1529109039597e-15 -4.702925143061844e-15 -1.0
  outer loop
    vertex 159.88459650056637 13.888098780570443 -0.007370634561794675
    vertex 159.0662845005662 9.758068780570508 -0.007370634561828515
    vertex 158.3364935005662 13.55903878057049 -0.007370634561839794
  endloop
endfacet
facet normal 6.1529109039597e-15 -4.702925143061844e-15 -1.0
  outer loop
    vertex 158.3364935005662 13.55903878057049 -0.007370634561839794
    vertex 159.0662845005662 9.758068780570508 -0.007370634561828515
    vertex 158.28995650056618 8.205848780570504 -0.007370634561822875
  endloop
endfacet
facet normal 6.1529109039597e-15 -4.702925143061844e-15 -1.0
  outer loop
    vertex 158.3364935005662 13.55903878057049 -0.007370634561839794
    vertex 158.28995650056618 8.205848780570504 -0.007370634561822875
    vertex 157.03075650056647 15.820638780570473 -0.007370634561856715
  endloop
endfacet
facet normal 6.1529109039597e-15 -4.702925143061844e-15 -1.0
  outer loop
    vertex 157.03075650056647 15.820638780570473 -0.007370634561856715
    vertex 158.28995650056618 8.205848780570504 -0.007370634561822875
    vertex 157.77859650056612 3.0032387805704936 -0.007370634561783395
  endloop
endfacet
facet normal 6.1529109039597e-15 -4.702925143061844e-15 -1.0
  outer loop
    vertex 157.03075650056647 15.820638780570473 -0.007370634561856715
    vertex 157.77859650056612 3.0032387805704936 -0.007370634561783395
    vertex 157.29008250056611 3.3499987805704365 -0.007370634561822875
  endloop
endfacet
facet normal 6.1529109039597e-15 -4.702925143061844e-15 -1.0
  outer loop
    vertex 157.03075650056647 15.820638780570473 -0.007370634561856715
    vertex 157.29008250056611 3.3499987805704365 -0.007370634561822875
    vertex 155.51254850056614 1.3758487805705408 -0.0073706345618003155
  endloop
endfacet
facet normal 6.1529109039597e-15 -4.702925143061844e-15 -1.0
  outer loop
    vertex 157.03075650056647 15.820638780570473 -0.007370634561856715
    vertex 155.51254850056614 1.3758487805705408 -0.0073706345618003155
    vertex 156.59579850056627 12.574008780570459 -0.0073706345618849145
  endloop
endfacet
facet normal 6.1529109039597e-15 -4.702925143061844e-15 -1.0
  outer loop
    vertex 156.59579850056627 12.574008780570459 -0.0073706345618849145
    vertex 155.51254850056614 1.3758487805705408 -0.0073706345618003155
    vertex 156.56143350056632 12.553398780570543 -0.007370634561867994
  endloop
endfacet
facet normal 6.1529109039597e-15 -4.702925143061844e-15 -1.0
  outer loop
    vertex 156.56143350056632 12.553398780570543 -0.007370634561867994
    vertex 155.51254850056614 1.3758487805705408 -0.0073706345618003155
    vertex 155.80825450056625 4.693218780570493 -0.007370634561856715
  endloop
endfacet
facet normal 6.1529109039597e-15 -4.702925143061844e-15 -1.0
  outer loop
    vertex 155.80825450056625 4.693218780570493 -0.007370634561856715
    vertex 155.51254850056614 1.3758487805705408 -0.0073706345618003155
    vertex 154.02625750056615 2.7141087805705033 -0.007370634561822875
  endloop
endfacet
facet normal 6.1529109039597e-15 -4.702925143061844e-15 -1.0
  outer loop
    vertex 155.01203750056612 6.031778780570529 -0.007370634561879274
    vertex 154.60676750056618 7.99031878057046 -0.0073706345618849145
    vertex 154.74072750056615 9.551868780570405 -0.007370634561913114
  endloop
endfacet
facet normal 6.1529109039597e-15 -4.702925143061844e-15 -1.0
  outer loop
    vertex 154.60676750056618 7.99031878057046 -0.0073706345618849145
    vertex 155.01203750056612 6.031778780570529 -0.007370634561879274
    vertex 152.42792750056606 5.4825087805705275 -0.007370634561834155
  endloop
endfacet
facet normal 6.1529109039597e-15 -4.702925143061844e-15 -1.0
  outer loop
    vertex 154.74072750056615 9.551868780570405 -0.007370634561913114
    vertex 154.60676750056618 7.99031878057046 -0.0073706345618849145
    vertex 154.65887750056615 9.340398780570515 -0.0073706345618736345
  endloop
endfacet
facet normal 6.1529109039597e-15 -4.702925143061844e-15 -1.0
  outer loop
    vertex 154.60676750056618 7.99031878057046 -0.0073706345618849145
    vertex 152.42792750056606 5.4825087805705275 -0.007370634561834155
    vertex 152.01210750056612 7.438798780570488 -0.007370634561890554
  endloop
endfacet
facet normal 6.1529109039597e-15 -4.702925143061844e-15 -1.0
  outer loop
    vertex 155.80825450056625 4.693218780570493 -0.007370634561856715
    vertex 155.56734650056634 11.37309878057053 -0.0073706345618736345
    vertex 156.56143350056632 12.553398780570543 -0.007370634561867994
  endloop
endfacet
facet normal 6.1529109039597e-15 -4.702925143061844e-15 -1.0
  outer loop
    vertex 155.56734650056634 11.37309878057053 -0.0073706345618736345
    vertex 155.80825450056625 4.693218780570493 -0.007370634561856715
    vertex 155.13095750056604 5.636318780570392 -0.0073706345618003155
  endloop
endfacet
facet normal 6.1529109039597e-15 -4.702925143061844e-15 -1.0
  outer loop
    vertex 155.56734650056634 11.37309878057053 -0.0073706345618736345
    vertex 155.13095750056604 5.636318780570392 -0.0073706345618003155
    vertex 154.74072750056615 9.551868780570405 -0.007370634561913114
  endloop
endfacet
facet normal 6.1529109039597e-15 -4.702925143061844e-15 -1.0
  outer loop
    vertex 155.56734650056634 11.37309878057053 -0.0073706345618736345
    vertex 154.74072750056615 9.551868780570405 -0.007370634561913114
    vertex 153.15971750056636 12.44504878057051 -0.007370634561851074
  endloop
endfacet
facet normal 6.1529109039597e-15 -4.702925143061844e-15 -1.0
  outer loop
    vertex 154.74072750056615 9.551868780570405 -0.007370634561913114
    vertex 155.13095750056604 5.636318780570392 -0.0073706345618003155
    vertex 155.01203750056612 6.031778780570529 -0.007370634561879274
  endloop
endfacet
facet normal 6.1529109039597e-15 -4.702925143061844e-15 -1.0
  outer loop
    vertex 153.15971750056636 12.44504878057051 -0.007370634561851074
    vertex 154.74072750056615 9.551868780570405 -0.007370634561913114
    vertex 152.34624750056625 10.617958780570524 -0.007370634561907474
  endloop
endfacet
facet normal 6.1529109039597e-15 -4.702925143061844e-15 -1.0
  outer loop
    vertex 155.2987075005663 14.820638780570501 -0.007370634561907474
    vertex 157.03075650056647 15.820638780570473 -0.007370634561856715
    vertex 156.59579850056627 12.574008780570459 -0.0073706345618849145
  endloop
endfacet
facet normal 6.1529109039597e-15 -4.702925143061844e-15 -1.0
  outer loop
    vertex 158.7116495005661 2.728248780570473 -0.007370634561783395
    vertex 158.28995650056618 8.205848780570504 -0.007370634561822875
    vertex 159.019501500566 6.631088780570392 -0.0073706345617890355
  endloop
endfacet
facet normal 6.1529109039597e-15 -4.702925143061844e-15 -1.0
  outer loop
    vertex 158.28995650056618 8.205848780570504 -0.007370634561822875
    vertex 158.7116495005661 2.728248780570473 -0.007370634561783395
    vertex 157.77859650056612 3.0032387805704936 -0.007370634561783395
  endloop
endfacet
facet normal 1.0 -1.887973904197557e-15 1.8027026588426308e-29
  outer loop
    vertex 169.2897325005663 36.27592878057045 -0.007370634561913114
    vertex 169.2897325005663 32.77592878057037 2.9926293654380447
    vertex 169.2897325005663 32.77592878057036 -0.007370634561901834
  endloop
endfacet
facet normal 1.0 -1.887973904197557e-15 1.8027026588426308e-29
  outer loop
    vertex 169.2897325005663 32.77592878057037 2.9926293654380447
    vertex 169.2897325005663 36.27592878057045 -0.007370634561913114
    vertex 169.2897325005663 36.27592878057046 2.992629365438042
  endloop
endfacet
facet normal 0.43671958111953074 0.8995976920083677 -2.5050529650621003e-14
  outer loop
    vertex 161.9152235005663 13.69137878057044 -0.007370634561845435
    vertex 161.91522350056636 13.691378780570492 2.992629365438132
    vertex 162.78973250056623 13.26683878057044 -0.007370634561828515
  endloop
endfacet
facet normal 0.436719581119593 0.8995976920083373 -2.5865319294201863e-15
  outer loop
    vertex 162.78973250056623 13.26683878057044 -0.007370634561828515
    vertex 161.91522350056636 13.691378780570492 2.992629365438132
    vertex 162.7897325005662 13.266838780570462 2.9926293654381997
  endloop
endfacet
facet normal -1.0 8.960270796936619e-15 4.887941903083101e-14
  outer loop
    vertex 151.78973250056657 27.675928780570622 27.992629365437924
    vertex 151.78973250056652 45.67592878057055 -0.007370634562014633
    vertex 151.78973250056623 27.6759287805705 -0.0073706345619695135
  endloop
endfacet
facet normal -1.0 8.960270796936619e-15 4.887941903083101e-14
  outer loop
    vertex 151.78973250056652 45.67592878057055 -0.007370634562014633
    vertex 151.78973250056657 27.675928780570622 27.992629365437924
    vertex 151.78973250056663 45.67592878057057 27.992629365437946
  endloop
endfacet
facet normal -1.1193603391860635e-14 -1.0 3.2703323919882715e-14
  outer loop
    vertex 151.78973250056657 27.675928780570622 27.992629365437924
    vertex 153.7897325005665 27.675928780570604 2.9926293654379346
    vertex 153.78973250056657 27.675928780570604 27.992629365437935
  endloop
endfacet
facet normal -1.1193603391860635e-14 -1.0 3.2703323919882715e-14
  outer loop
    vertex 153.7897325005665 27.675928780570604 2.9926293654379346
    vertex 151.78973250056657 27.675928780570622 27.992629365437924
    vertex 151.78973250056623 27.6759287805705 -0.0073706345619695135
  endloop
endfacet
facet normal -1.1193603391860635e-14 -1.0 3.2703323919882715e-14
  outer loop
    vertex 153.7897325005665 27.675928780570604 2.9926293654379346
    vertex 151.78973250056623 27.6759287805705 -0.0073706345619695135
    vertex 162.7897325005662 27.675928780570406 -0.007370634561941314
  endloop
endfacet
facet normal -1.1193603391860635e-14 -1.0 3.2703323919882715e-14
  outer loop
    vertex 162.7897325005662 27.675928780570406 -0.007370634561941314
    vertex 162.78973250056652 27.67592878057048 2.992629365437977
    vertex 153.7897325005665 27.675928780570604 2.9926293654379346
  endloop
endfacet
facet normal 0.4067351507246529 0.9135461220786797 -1.3363483105820532e-15
  outer loop
    vertex 167.2403995005661 6.175928780570515 -0.007370634561817235
    vertex 165.7666449709536 6.832083687526909 2.9926293654381944
    vertex 167.2403995005662 6.175928780570473 2.992629365438197
  endloop
endfacet
facet normal 0.4067351507246529 0.9135461220786797 -1.3363483105820532e-15
  outer loop
    vertex 165.7666449709536 6.832083687526909 2.9926293654381944
    vertex 167.2403995005661 6.175928780570515 -0.007370634561817235
    vertex 165.76664497095362 6.832083687526997 -0.007370634561749556
  endloop
endfacet
facet normal 0.7282515778808916 -0.6853098856094169 -1.1436398495077399e-14
  outer loop
    vertex 165.76664497095362 6.832083687526997 -0.007370634561749556
    vertex 169.2897325005663 10.575928780570303 2.9926293654381717
    vertex 165.7666449709536 6.832083687526909 2.9926293654381944
  endloop
endfacet
facet normal 0.7282515778808916 -0.6853098856094169 -1.1436398495077399e-14
  outer loop
    vertex 169.2897325005663 10.575928780570303 2.9926293654381717
    vertex 165.76664497095362 6.832083687526997 -0.007370634561749556
    vertex 169.28973250056623 10.575928780570267 -0.007370634561766475
  endloop
endfacet
facet normal -1.0 9.899271301752818e-15 4.511946372076572e-14
  outer loop
    vertex 162.7897325005662 13.266838780570462 2.9926293654381997
    vertex 162.7897325005662 27.675928780570406 -0.007370634561941314
    vertex 162.78973250056623 13.26683878057044 -0.007370634561828515
  endloop
endfacet
facet normal -1.0 9.899271301752818e-15 4.511946372076572e-14
  outer loop
    vertex 162.7897325005662 27.675928780570406 -0.007370634561941314
    vertex 162.7897325005662 13.266838780570462 2.9926293654381997
    vertex 162.78973250056652 27.67592878057048 2.992629365437977
  endloop
endfacet
facet normal 8.623529442415838e-15 1.0 -9.936455814543759e-15
  outer loop
    vertex 159.8897325005666 45.675928780570494 -0.0073706345619695135
    vertex 153.78973250056663 45.67592878057061 2.9926293654379177
    vertex 159.88973250056668 45.67592878057051 2.9926293654379825
  endloop
endfacet
facet normal 8.623529442415838e-15 1.0 -9.936455814543759e-15
  outer loop
    vertex 153.7897325005667 45.67592878057061 27.992629365437917
    vertex 151.78973250056652 45.67592878057055 -0.007370634562014633
    vertex 151.78973250056663 45.67592878057057 27.992629365437946
  endloop
endfacet
facet normal 8.623529442415838e-15 1.0 -9.936455814543759e-15
  outer loop
    vertex 151.78973250056652 45.67592878057055 -0.007370634562014633
    vertex 153.7897325005667 45.67592878057061 27.992629365437917
    vertex 153.78973250056663 45.67592878057061 2.9926293654379177
  endloop
endfacet
facet normal 8.623529442415838e-15 1.0 -9.936455814543759e-15
  outer loop
    vertex 151.78973250056652 45.67592878057055 -0.007370634562014633
    vertex 153.78973250056663 45.67592878057061 2.9926293654379177
    vertex 159.8897325005666 45.675928780570494 -0.0073706345619695135
  endloop
endfacet
facet normal -4.151435794031352e-15 6.020656931511414e-15 1.0
  outer loop
    vertex 155.29870750056634 14.820638780570475 2.992629365438101
    vertex 156.59579850056625 12.57400878057042 2.9926293654381295
    vertex 157.0307565005662 15.820638780570464 2.9926293654380673
  endloop
endfacet
facet normal -4.151435794031352e-15 6.020656931511414e-15 1.0
  outer loop
    vertex 160.15756950056635 16.485258780570476 2.9926293654381153
    vertex 161.87544850056634 13.6962287805705 2.992629365438107
    vertex 162.1466145005664 16.27619878057045 2.9926293654380953
  endloop
endfacet
facet normal -4.151435794031352e-15 6.020656931511414e-15 1.0
  outer loop
    vertex 161.87544850056634 13.6962287805705 2.992629365438107
    vertex 160.15756950056635 16.485258780570476 2.9926293654381153
    vertex 160.7638925005663 10.118908780570422 2.992629365438183
  endloop
endfacet
facet normal -4.151435794031352e-15 6.020656931511414e-15 1.0
  outer loop
    vertex 160.7638925005663 10.118908780570422 2.992629365438183
    vertex 160.15756950056635 16.485258780570476 2.9926293654381153
    vertex 159.88459650056637 13.888098780570482 2.992629365438183
  endloop
endfacet
facet normal -4.151435794031352e-15 6.020656931511414e-15 1.0
  outer loop
    vertex 160.7638925005663 10.118908780570422 2.992629365438183
    vertex 159.88459650056637 13.888098780570482 2.992629365438183
    vertex 159.06628450056633 9.758068780570515 2.9926293654381717
  endloop
endfacet
facet normal -4.151435794031352e-15 6.020656931511414e-15 1.0
  outer loop
    vertex 159.06628450056633 9.758068780570515 2.9926293654381717
    vertex 159.88459650056637 13.888098780570482 2.992629365438183
    vertex 158.33649350056618 13.559038780570486 2.992629365438135
  endloop
endfacet
facet normal -4.151435794031352e-15 6.020656931511414e-15 1.0
  outer loop
    vertex 159.06628450056633 9.758068780570515 2.9926293654381717
    vertex 158.33649350056618 13.559038780570486 2.992629365438135
    vertex 158.28995650056626 8.205848780570559 2.992629365438186
  endloop
endfacet
facet normal -4.151435794031352e-15 6.020656931511414e-15 1.0
  outer loop
    vertex 158.28995650056626 8.205848780570559 2.992629365438186
    vertex 158.33649350056618 13.559038780570486 2.992629365438135
    vertex 157.0307565005662 15.820638780570464 2.9926293654380673
  endloop
endfacet
facet normal -4.151435794031352e-15 6.020656931511414e-15 1.0
  outer loop
    vertex 158.28995650056626 8.205848780570559 2.992629365438186
    vertex 157.0307565005662 15.820638780570464 2.9926293654380673
    vertex 157.77859650056604 3.0032387805704825 2.9926293654381633
  endloop
endfacet
facet normal -4.151435794031352e-15 6.020656931511414e-15 1.0
  outer loop
    vertex 157.77859650056604 3.0032387805704825 2.9926293654381633
    vertex 157.0307565005662 15.820638780570464 2.9926293654380673
    vertex 157.29008250056611 3.3499987805704974 2.9926293654382197
  endloop
endfacet
facet normal -4.151435794031352e-15 6.020656931511414e-15 1.0
  outer loop
    vertex 157.29008250056611 3.3499987805704974 2.9926293654382197
    vertex 157.0307565005662 15.820638780570464 2.9926293654380673
    vertex 155.51254850056617 1.3758487805704775 2.9926293654381575
  endloop
endfacet
facet normal -4.151435794031352e-15 6.020656931511414e-15 1.0
  outer loop
    vertex 155.51254850056617 1.3758487805704775 2.9926293654381575
    vertex 157.0307565005662 15.820638780570464 2.9926293654380673
    vertex 156.59579850056625 12.57400878057042 2.9926293654381295
  endloop
endfacet
facet normal -4.151435794031352e-15 6.020656931511414e-15 1.0
  outer loop
    vertex 155.51254850056617 1.3758487805704775 2.9926293654381575
    vertex 156.59579850056625 12.57400878057042 2.9926293654381295
    vertex 156.5614335005663 12.553398780570484 2.9926293654381464
  endloop
endfacet
facet normal -4.151435794031352e-15 6.020656931511414e-15 1.0
  outer loop
    vertex 155.51254850056617 1.3758487805704775 2.9926293654381575
    vertex 156.5614335005663 12.553398780570484 2.9926293654381464
    vertex 155.80825450056633 4.693218780570482 2.9926293654381886
  endloop
endfacet
facet normal -4.151435794031352e-15 6.020656931511414e-15 1.0
  outer loop
    vertex 155.51254850056617 1.3758487805704775 2.9926293654381575
    vertex 155.80825450056633 4.693218780570482 2.9926293654381886
    vertex 154.0262575005661 2.7141087805705046 2.992629365438107
  endloop
endfacet
facet normal -4.151435794031352e-15 6.020656931511414e-15 1.0
  outer loop
    vertex 158.28995650056626 8.205848780570559 2.992629365438186
    vertex 158.711649500566 2.728248780570526 2.9926293654381633
    vertex 159.01950150056607 6.631088780570459 2.9926293654381886
  endloop
endfacet
facet normal -4.151435794031352e-15 6.020656931511414e-15 1.0
  outer loop
    vertex 158.711649500566 2.728248780570526 2.9926293654381633
    vertex 158.28995650056626 8.205848780570559 2.992629365438186
    vertex 157.77859650056604 3.0032387805704825 2.9926293654381633
  endloop
endfacet
facet normal -4.151435794031352e-15 6.020656931511414e-15 1.0
  outer loop
    vertex 162.21622650056605 2.839138780570392 2.992629365438214
    vertex 162.07848750056618 7.2812987805704505 2.9926293654381744
    vertex 161.485223500566 2.551578780570449 2.992629365438228
  endloop
endfacet
facet normal -4.151435794031352e-15 6.020656931511414e-15 1.0
  outer loop
    vertex 162.07848750056618 7.2812987805704505 2.9926293654381744
    vertex 162.21622650056605 2.839138780570392 2.992629365438214
    vertex 162.10445050056632 9.016638780570426 2.9926293654381775
  endloop
endfacet
facet normal -4.151435794031352e-15 6.020656931511414e-15 1.0
  outer loop
    vertex 161.485223500566 2.551578780570449 2.992629365438228
    vertex 162.07848750056618 7.2812987805704505 2.9926293654381744
    vertex 160.7055545005661 6.219628780570336 2.9926293654381997
  endloop
endfacet
facet normal -4.151435794031352e-15 6.020656931511414e-15 1.0
  outer loop
    vertex 161.485223500566 2.551578780570449 2.992629365438228
    vertex 160.7055545005661 6.219628780570336 2.9926293654381997
    vertex 160.70045850056601 2.51694878057045 2.992629365438239
  endloop
endfacet
facet normal -4.151435794031352e-15 6.020656931511414e-15 1.0
  outer loop
    vertex 160.70045850056601 2.51694878057045 2.992629365438239
    vertex 160.7055545005661 6.219628780570336 2.9926293654381997
    vertex 159.01950150056607 6.631088780570459 2.9926293654381886
  endloop
endfacet
facet normal -4.151435794031352e-15 6.020656931511414e-15 1.0
  outer loop
    vertex 160.70045850056601 2.51694878057045 2.992629365438239
    vertex 159.01950150056607 6.631088780570459 2.9926293654381886
    vertex 160.4218945005662 -0.13341121942946838 2.9926293654381997
  endloop
endfacet
facet normal -4.151435794031352e-15 6.020656931511414e-15 1.0
  outer loop
    vertex 160.4218945005662 -0.13341121942946838 2.9926293654381997
    vertex 159.01950150056607 6.631088780570459 2.9926293654381886
    vertex 158.711649500566 2.728248780570526 2.9926293654381633
  endloop
endfacet
facet normal -4.151435794031352e-15 6.020656931511414e-15 1.0
  outer loop
    vertex 160.4218945005662 -0.13341121942946838 2.9926293654381997
    vertex 158.711649500566 2.728248780570526 2.9926293654381633
    vertex 158.4328495005662 0.0756487805704189 2.992629365438186
  endloop
endfacet
facet normal -4.151435794031352e-15 6.020656931511414e-15 1.0
  outer loop
    vertex 163.54870750056625 0.5312187805705558 2.992629365438234
    vertex 162.7897325005662 13.266838780570462 2.9926293654381997
    vertex 162.21622650056605 2.839138780570392 2.992629365438214
  endloop
endfacet
facet normal -4.151435794031352e-15 6.020656931511414e-15 1.0
  outer loop
    vertex 162.7897325005662 13.266838780570462 2.9926293654381997
    vertex 163.54870750056625 0.5312187805705558 2.992629365438234
    vertex 162.78973250056652 27.67592878057048 2.992629365437977
  endloop
endfacet
facet normal -4.151435794031352e-15 6.020656931511414e-15 1.0
  outer loop
    vertex 162.21622650056605 2.839138780570392 2.992629365438214
    vertex 162.7897325005662 13.266838780570462 2.9926293654381997
    vertex 162.10445050056632 9.016638780570426 2.9926293654381775
  endloop
endfacet
facet normal -4.151435794031352e-15 6.020656931511414e-15 1.0
  outer loop
    vertex 162.10445050056632 9.016638780570426 2.9926293654381775
    vertex 162.7897325005662 13.266838780570462 2.9926293654381997
    vertex 161.91522350056636 13.691378780570492 2.992629365438132
  endloop
endfacet
facet normal -4.151435794031352e-15 6.020656931511414e-15 1.0
  outer loop
    vertex 162.10445050056632 9.016638780570426 2.9926293654381775
    vertex 161.91522350056636 13.691378780570492 2.992629365438132
    vertex 160.7638925005663 10.118908780570422 2.992629365438183
  endloop
endfacet
facet normal -4.151435794031352e-15 6.020656931511414e-15 1.0
  outer loop
    vertex 160.7638925005663 10.118908780570422 2.992629365438183
    vertex 161.91522350056636 13.691378780570492 2.992629365438132
    vertex 161.87544850056634 13.6962287805705 2.992629365438107
  endloop
endfacet
facet normal -4.151435794031352e-15 6.020656931511414e-15 1.0
  outer loop
    vertex 163.54870750056625 0.5312187805705558 2.992629365438234
    vertex 165.2807570005662 1.5312187805704198 2.9926293654381517
    vertex 163.9471505005663 3.8410987805704933 2.992629365438214
  endloop
endfacet
facet normal -4.151435794031352e-15 6.020656931511414e-15 1.0
  outer loop
    vertex 167.2403995005662 6.175928780570473 2.992629365438197
    vertex 167.41974550056617 3.9067987805703774 2.9926293654382308
    vertex 168.23321950056624 5.73389878057034 2.9926293654382197
  endloop
endfacet
facet normal -4.151435794031352e-15 6.020656931511414e-15 1.0
  outer loop
    vertex 167.41974550056617 3.9067987805703774 2.9926293654382308
    vertex 167.2403995005662 6.175928780570473 2.992629365438197
    vertex 164.99292760056625 4.987288780570392 2.9926293654382112
  endloop
endfacet
facet normal -4.151435794031352e-15 6.020656931511414e-15 1.0
  outer loop
    vertex 164.99292760056625 4.987288780570392 2.9926293654382112
    vertex 167.2403995005662 6.175928780570473 2.992629365438197
    vertex 165.7666449709536 6.832083687526909 2.9926293654381944
  endloop
endfacet
facet normal -4.151435794031352e-15 6.020656931511414e-15 1.0
  outer loop
    vertex 169.2897325005663 32.77592878057037 2.9926293654380447
    vertex 169.2897325005663 10.575928780570303 2.9926293654381717
    vertex 169.28973250056634 14.29523967350551 2.9926293654381633
  endloop
endfacet
facet normal -4.151435794031352e-15 6.020656931511414e-15 1.0
  outer loop
    vertex 169.2897325005663 10.575928780570303 2.9926293654381717
    vertex 169.2897325005663 32.77592878057037 2.9926293654380447
    vertex 165.7666449709536 6.832083687526909 2.9926293654381944
  endloop
endfacet
facet normal -4.151435794031352e-15 6.020656931511414e-15 1.0
  outer loop
    vertex 165.7666449709536 6.832083687526909 2.9926293654381944
    vertex 169.2897325005663 32.77592878057037 2.9926293654380447
    vertex 169.2897325005663 36.27592878057046 2.992629365438042
  endloop
endfacet
facet normal -4.151435794031352e-15 6.020656931511414e-15 1.0
  outer loop
    vertex 165.7666449709536 6.832083687526909 2.9926293654381944
    vertex 169.2897325005663 36.27592878057046 2.992629365438042
    vertex 162.78973250056652 27.67592878057048 2.992629365437977
  endloop
endfacet
facet normal -4.151435794031352e-15 6.020656931511414e-15 1.0
  outer loop
    vertex 162.78973250056652 27.67592878057048 2.992629365437977
    vertex 169.2897325005663 36.27592878057046 2.992629365438042
    vertex 159.88973250056668 45.67592878057051 2.9926293654379825
  endloop
endfacet
facet normal -4.151435794031352e-15 6.020656931511414e-15 1.0
  outer loop
    vertex 165.7666449709536 6.832083687526909 2.9926293654381944
    vertex 162.78973250056652 27.67592878057048 2.992629365437977
    vertex 164.99292760056625 4.987288780570392 2.9926293654382112
  endloop
endfacet
facet normal -4.151435794031352e-15 6.020656931511414e-15 1.0
  outer loop
    vertex 164.99292760056625 4.987288780570392 2.9926293654382112
    vertex 162.78973250056652 27.67592878057048 2.992629365437977
    vertex 164.68768980056626 4.471808780570351 2.9926293654382166
  endloop
endfacet
facet normal -4.151435794031352e-15 6.020656931511414e-15 1.0
  outer loop
    vertex 164.68768980056626 4.471808780570351 2.9926293654382166
    vertex 162.78973250056652 27.67592878057048 2.992629365437977
    vertex 163.9471505005663 3.8410987805704933 2.992629365438214
  endloop
endfacet
facet normal -4.151435794031352e-15 6.020656931511414e-15 1.0
  outer loop
    vertex 163.9471505005663 3.8410987805704933 2.992629365438214
    vertex 162.78973250056652 27.67592878057048 2.992629365437977
    vertex 163.54870750056625 0.5312187805705558 2.992629365438234
  endloop
endfacet
facet normal -4.151435794031352e-15 6.020656931511414e-15 1.0
  outer loop
    vertex 162.78973250056652 27.67592878057048 2.992629365437977
    vertex 159.88973250056668 45.67592878057051 2.9926293654379825
    vertex 153.7897325005665 27.675928780570604 2.9926293654379346
  endloop
endfacet
facet normal -4.151435794031352e-15 6.020656931511414e-15 1.0
  outer loop
    vertex 153.7897325005665 27.675928780570604 2.9926293654379346
    vertex 159.88973250056668 45.67592878057051 2.9926293654379825
    vertex 153.78973250056663 45.67592878057061 2.9926293654379177
  endloop
endfacet
facet normal -4.151435794031352e-15 6.020656931511414e-15 1.0
  outer loop
    vertex 155.5673465005662 11.373098780570492 2.992629365438135
    vertex 155.80825450056633 4.693218780570482 2.9926293654381886
    vertex 156.5614335005663 12.553398780570484 2.9926293654381464
  endloop
endfacet
facet normal -4.151435794031352e-15 6.020656931511414e-15 1.0
  outer loop
    vertex 155.80825450056633 4.693218780570482 2.9926293654381886
    vertex 155.5673465005662 11.373098780570492 2.992629365438135
    vertex 155.13095750056613 5.636318780570382 2.99262936543816
  endloop
endfacet
facet normal -4.151435794031352e-15 6.020656931511414e-15 1.0
  outer loop
    vertex 155.13095750056613 5.636318780570382 2.99262936543816
    vertex 155.5673465005662 11.373098780570492 2.992629365438135
    vertex 154.7407275005663 9.551868780570539 2.9926293654381686
  endloop
endfacet
facet normal -4.151435794031352e-15 6.020656931511414e-15 1.0
  outer loop
    vertex 154.7407275005663 9.551868780570539 2.9926293654381686
    vertex 155.5673465005662 11.373098780570492 2.992629365438135
    vertex 153.1597175005663 12.445048780570485 2.99262936543816
  endloop
endfacet
facet normal -4.151435794031352e-15 6.020656931511414e-15 1.0
  outer loop
    vertex 155.13095750056613 5.636318780570382 2.99262936543816
    vertex 154.7407275005663 9.551868780570539 2.9926293654381686
    vertex 155.01203750056627 6.031778780570491 2.992629365438121
  endloop
endfacet
facet normal -4.151435794031352e-15 6.020656931511414e-15 1.0
  outer loop
    vertex 154.7407275005663 9.551868780570539 2.9926293654381686
    vertex 153.1597175005663 12.445048780570485 2.99262936543816
    vertex 152.3462475005663 10.61795878057052 2.9926293654381237
  endloop
endfacet
facet normal -4.151435794031352e-15 6.020656931511414e-15 1.0
  outer loop
    vertex 155.01203750056627 6.031778780570491 2.992629365438121
    vertex 154.6067675005662 7.990318780570433 2.9926293654381295
    vertex 152.4279275005661 5.482508780570525 2.992629365438138
  endloop
endfacet
facet normal -4.151435794031352e-15 6.020656931511414e-15 1.0
  outer loop
    vertex 154.6067675005662 7.990318780570433 2.9926293654381295
    vertex 155.01203750056627 6.031778780570491 2.992629365438121
    vertex 154.7407275005663 9.551868780570539 2.9926293654381686
  endloop
endfacet
facet normal -4.151435794031352e-15 6.020656931511414e-15 1.0
  outer loop
    vertex 154.6067675005662 7.990318780570433 2.9926293654381295
    vertex 154.7407275005663 9.551868780570539 2.9926293654381686
    vertex 154.6588775005663 9.34039878057053 2.9926293654381237
  endloop
endfacet
facet normal -4.151435794031352e-15 6.020656931511414e-15 1.0
  outer loop
    vertex 152.4279275005661 5.482508780570525 2.992629365438138
    vertex 154.6067675005662 7.990318780570433 2.9926293654381295
    vertex 152.0121075005661 7.438798780570516 2.9926293654381633
  endloop
endfacet
facet normal 0.7071067811865617 0.7071067811865334 -9.880379225811134e-15
  outer loop
    vertex 159.8897325005666 45.675928780570494 -0.0073706345619695135
    vertex 169.2897325005663 36.27592878057046 2.992629365438042
    vertex 169.2897325005663 36.27592878057045 -0.007370634561913114
  endloop
endfacet
facet normal 0.7071067811865617 0.7071067811865334 -9.880379225811134e-15
  outer loop
    vertex 169.2897325005663 36.27592878057046 2.992629365438042
    vertex 159.8897325005666 45.675928780570494 -0.0073706345619695135
    vertex 159.88973250056668 45.67592878057051 2.9926293654379825
  endloop
endfacet
endsolid Robot
